<?xml version="1.0" encoding="utf-8" standalone="no"?>
<!DOCTYPE svg PUBLIC "-//W3C//DTD SVG 1.1//EN"
  "http://www.w3.org/Graphics/SVG/1.1/DTD/svg11.dtd">
<svg xmlns:xlink="http://www.w3.org/1999/xlink" width="360pt" height="360pt" viewBox="0 0 360 360" xmlns="http://www.w3.org/2000/svg" version="1.1">
 <metadata>
  <rdf:RDF xmlns:dc="http://purl.org/dc/elements/1.1/" xmlns:cc="http://creativecommons.org/ns#" xmlns:rdf="http://www.w3.org/1999/02/22-rdf-syntax-ns#">
   <cc:Work>
    <dc:type rdf:resource="http://purl.org/dc/dcmitype/StillImage"/>
    <dc:date>2023-10-31T09:18:51.668167</dc:date>
    <dc:format>image/svg+xml</dc:format>
    <dc:creator>
     <cc:Agent>
      <dc:title>Matplotlib v3.7.1, https://matplotlib.org/</dc:title>
     </cc:Agent>
    </dc:creator>
   </cc:Work>
  </rdf:RDF>
 </metadata>
 <defs>
  <style type="text/css">*{stroke-linejoin: round; stroke-linecap: butt}</style>
 </defs>
 <g id="figure_1">
  <g id="patch_1">
   <path d="M 0 360 
L 360 360 
L 360 0 
L 0 0 
z
" style="fill: #ffffff"/>
  </g>
  <g id="axes_1">
   <g id="patch_2">
    <path d="M 73.727141 286.920956 
L 335.16 286.920956 
L 335.16 45.766022 
L 73.727141 45.766022 
z
" style="fill: #ffffff"/>
   </g>
   <g id="matplotlib.axis_1">
    <g id="xtick_1">
     <g id="line2d_1">
      <path d="M 84.02167 286.920956 
L 84.02167 45.766022 
" clip-path="url(#p57d9c63611)" style="fill: none; stroke-dasharray: 2.96,1.28; stroke-dashoffset: 0; stroke: #b0b0b0; stroke-opacity: 0.3; stroke-width: 0.8"/>
     </g>
     <g id="line2d_2">
      <defs>
       <path id="m1374d8baed" d="M 0 0 
L 0 -3 
" style="stroke: #000000; stroke-width: 0.5"/>
      </defs>
      <g>
       <use xlink:href="#m1374d8baed" x="84.02167" y="286.920956" style="stroke: #000000; stroke-width: 0.5"/>
      </g>
     </g>
     <g id="text_1">
      <!-- 0 -->
      <g transform="translate(78.767266 306.333498) scale(0.23 -0.23)">
       <defs>
        <path id="CMR17-30" d="M 2688 2025 
C 2688 2416 2682 3080 2413 3591 
C 2176 4039 1798 4198 1466 4198 
C 1158 4198 768 4058 525 3597 
C 269 3118 243 2524 243 2025 
C 243 1661 250 1106 448 619 
C 723 -39 1216 -128 1466 -128 
C 1760 -128 2208 -7 2470 600 
C 2662 1042 2688 1559 2688 2025 
z
M 1466 -26 
C 1056 -26 813 325 723 812 
C 653 1188 653 1738 653 2096 
C 653 2588 653 2997 736 3387 
C 858 3929 1216 4096 1466 4096 
C 1728 4096 2067 3923 2189 3400 
C 2272 3036 2278 2607 2278 2096 
C 2278 1680 2278 1169 2202 792 
C 2067 95 1690 -26 1466 -26 
z
" transform="scale(0.015625)"/>
       </defs>
       <use xlink:href="#CMR17-30" transform="scale(0.996264)"/>
      </g>
     </g>
    </g>
    <g id="xtick_2">
     <g id="line2d_3">
      <path d="M 141.549075 286.920956 
L 141.549075 45.766022 
" clip-path="url(#p57d9c63611)" style="fill: none; stroke-dasharray: 2.96,1.28; stroke-dashoffset: 0; stroke: #b0b0b0; stroke-opacity: 0.3; stroke-width: 0.8"/>
     </g>
     <g id="line2d_4">
      <g>
       <use xlink:href="#m1374d8baed" x="141.549075" y="286.920956" style="stroke: #000000; stroke-width: 0.5"/>
      </g>
     </g>
     <g id="text_2">
      <!-- 2k -->
      <g transform="translate(130.740988 306.333498) scale(0.23 -0.23)">
       <defs>
        <path id="CMR17-32" d="M 2669 989 
L 2554 989 
C 2490 536 2438 459 2413 420 
C 2381 369 1920 369 1830 369 
L 602 369 
C 832 619 1280 1072 1824 1597 
C 2214 1967 2669 2402 2669 3035 
C 2669 3790 2067 4224 1395 4224 
C 691 4224 262 3604 262 3030 
C 262 2780 448 2748 525 2748 
C 589 2748 781 2787 781 3010 
C 781 3207 614 3264 525 3264 
C 486 3264 448 3258 422 3245 
C 544 3790 915 4058 1306 4058 
C 1862 4058 2227 3617 2227 3035 
C 2227 2479 1901 2000 1536 1584 
L 262 146 
L 262 0 
L 2515 0 
L 2669 989 
z
" transform="scale(0.015625)"/>
        <path id="CMR17-6b" d="M 1670 1673 
C 1664 1686 1632 1724 1632 1743 
C 1632 1756 2086 2171 2144 2222 
C 2509 2528 2739 2560 2906 2560 
L 2906 2733 
C 2867 2733 2854 2733 2848 2720 
L 2534 2720 
C 2355 2720 2080 2720 1907 2733 
L 1907 2566 
C 1997 2559 2061 2508 2061 2419 
C 2061 2291 1933 2170 1926 2170 
L 960 1289 
L 960 4396 
L 198 4326 
L 198 4160 
C 576 4160 634 4122 634 3817 
L 634 426 
C 634 184 608 153 198 153 
L 198 -13 
C 352 0 634 0 794 0 
C 954 0 1235 0 1389 -13 
L 1389 153 
C 979 153 954 178 954 428 
L 954 1130 
L 1395 1532 
L 2042 574 
C 2118 459 2182 369 2182 286 
C 2182 172 2067 153 1990 153 
L 1990 -13 
C 2144 0 2419 0 2579 0 
C 2694 0 2931 0 3040 0 
L 3040 153 
C 2739 153 2669 210 2477 491 
L 1670 1673 
z
" transform="scale(0.015625)"/>
       </defs>
       <use xlink:href="#CMR17-32" transform="scale(0.996264)"/>
       <use xlink:href="#CMR17-6b" transform="translate(45.690477 0) scale(0.996264)"/>
      </g>
     </g>
    </g>
    <g id="xtick_3">
     <g id="line2d_5">
      <path d="M 199.07648 286.920956 
L 199.07648 45.766022 
" clip-path="url(#p57d9c63611)" style="fill: none; stroke-dasharray: 2.96,1.28; stroke-dashoffset: 0; stroke: #b0b0b0; stroke-opacity: 0.3; stroke-width: 0.8"/>
     </g>
     <g id="line2d_6">
      <g>
       <use xlink:href="#m1374d8baed" x="199.07648" y="286.920956" style="stroke: #000000; stroke-width: 0.5"/>
      </g>
     </g>
     <g id="text_3">
      <!-- 4k -->
      <g transform="translate(188.268393 306.333498) scale(0.23 -0.23)">
       <defs>
        <path id="CMR17-34" d="M 2150 4122 
C 2150 4256 2144 4256 2029 4256 
L 128 1254 
L 128 1088 
L 1779 1088 
L 1779 457 
C 1779 224 1766 160 1318 160 
L 1197 160 
L 1197 0 
C 1402 0 1747 0 1965 0 
C 2182 0 2528 0 2733 0 
L 2733 160 
L 2611 160 
C 2163 160 2150 224 2150 457 
L 2150 1088 
L 2803 1088 
L 2803 1254 
L 2150 1254 
L 2150 4122 
z
M 1798 3703 
L 1798 1254 
L 256 1254 
L 1798 3703 
z
" transform="scale(0.015625)"/>
       </defs>
       <use xlink:href="#CMR17-34" transform="scale(0.996264)"/>
       <use xlink:href="#CMR17-6b" transform="translate(45.690477 0) scale(0.996264)"/>
      </g>
     </g>
    </g>
    <g id="xtick_4">
     <g id="line2d_7">
      <path d="M 256.603885 286.920956 
L 256.603885 45.766022 
" clip-path="url(#p57d9c63611)" style="fill: none; stroke-dasharray: 2.96,1.28; stroke-dashoffset: 0; stroke: #b0b0b0; stroke-opacity: 0.3; stroke-width: 0.8"/>
     </g>
     <g id="line2d_8">
      <g>
       <use xlink:href="#m1374d8baed" x="256.603885" y="286.920956" style="stroke: #000000; stroke-width: 0.5"/>
      </g>
     </g>
     <g id="text_4">
      <!-- 6k -->
      <g transform="translate(245.795798 306.333498) scale(0.23 -0.23)">
       <defs>
        <path id="CMR17-36" d="M 678 2176 
C 678 3690 1395 4032 1811 4032 
C 1946 4032 2272 4009 2400 3776 
C 2298 3776 2106 3776 2106 3553 
C 2106 3381 2246 3323 2336 3323 
C 2394 3323 2566 3348 2566 3560 
C 2566 3954 2246 4179 1805 4179 
C 1043 4179 243 3390 243 1984 
C 243 253 966 -128 1478 -128 
C 2099 -128 2688 427 2688 1283 
C 2688 2081 2170 2662 1517 2662 
C 1126 2662 838 2407 678 1960 
L 678 2176 
z
M 1478 25 
C 691 25 691 1200 691 1436 
C 691 1896 909 2560 1504 2560 
C 1613 2560 1926 2560 2138 2120 
C 2253 1870 2253 1609 2253 1289 
C 2253 944 2253 690 2118 434 
C 1978 171 1773 25 1478 25 
z
" transform="scale(0.015625)"/>
       </defs>
       <use xlink:href="#CMR17-36" transform="scale(0.996264)"/>
       <use xlink:href="#CMR17-6b" transform="translate(45.690477 0) scale(0.996264)"/>
      </g>
     </g>
    </g>
    <g id="xtick_5">
     <g id="line2d_9">
      <path d="M 314.13129 286.920956 
L 314.13129 45.766022 
" clip-path="url(#p57d9c63611)" style="fill: none; stroke-dasharray: 2.96,1.28; stroke-dashoffset: 0; stroke: #b0b0b0; stroke-opacity: 0.3; stroke-width: 0.8"/>
     </g>
     <g id="line2d_10">
      <g>
       <use xlink:href="#m1374d8baed" x="314.13129" y="286.920956" style="stroke: #000000; stroke-width: 0.5"/>
      </g>
     </g>
     <g id="text_5">
      <!-- 8k -->
      <g transform="translate(303.323203 306.333498) scale(0.23 -0.23)">
       <defs>
        <path id="CMR17-38" d="M 1741 2264 
C 2144 2467 2554 2773 2554 3263 
C 2554 3841 1990 4179 1472 4179 
C 890 4179 378 3759 378 3180 
C 378 3021 416 2747 666 2505 
C 730 2442 998 2251 1171 2130 
C 883 1983 211 1634 211 934 
C 211 279 838 -128 1459 -128 
C 2144 -128 2720 362 2720 1010 
C 2720 1590 2330 1857 2074 2029 
L 1741 2264 
z
M 902 2822 
C 851 2854 595 3051 595 3351 
C 595 3739 998 4032 1459 4032 
C 1965 4032 2336 3676 2336 3262 
C 2336 2669 1670 2331 1638 2331 
C 1632 2331 1626 2331 1574 2370 
L 902 2822 
z
M 2080 1519 
C 2176 1449 2483 1240 2483 851 
C 2483 381 2010 25 1472 25 
C 890 25 448 438 448 940 
C 448 1443 838 1862 1280 2060 
L 2080 1519 
z
" transform="scale(0.015625)"/>
       </defs>
       <use xlink:href="#CMR17-38" transform="scale(0.996264)"/>
       <use xlink:href="#CMR17-6b" transform="translate(45.690477 0) scale(0.996264)"/>
      </g>
     </g>
    </g>
    <g id="text_6">
     <!-- Time step -->
     <g transform="translate(158.29118 330.70302) scale(0.23 -0.23)">
      <defs>
       <path id="CMR17-54" d="M 3981 4326 
L 288 4326 
L 179 2918 
L 294 2918 
C 378 3976 467 4160 1453 4160 
C 1568 4160 1754 4160 1805 4154 
C 1926 4135 1926 4058 1926 3912 
L 1926 459 
C 1926 230 1907 160 1376 160 
L 1197 160 
L 1197 0 
C 1504 0 1824 0 2138 0 
C 2451 0 2771 0 3078 0 
L 3078 160 
L 2899 160 
C 2368 160 2349 230 2349 459 
L 2349 3912 
C 2349 4052 2349 4129 2464 4154 
C 2515 4160 2701 4160 2816 4160 
C 3795 4160 3891 3976 3974 2918 
L 4090 2918 
L 3981 4326 
z
" transform="scale(0.015625)"/>
       <path id="CMR17-69" d="M 992 3909 
C 992 4049 877 4170 730 4170 
C 589 4170 467 4056 467 3909 
C 467 3769 582 3648 730 3648 
C 870 3648 992 3763 992 3909 
z
M 243 2706 
L 243 2541 
C 602 2541 653 2502 653 2197 
L 653 427 
C 653 184 627 153 218 153 
L 218 -13 
C 371 0 646 0 806 0 
C 960 0 1222 0 1370 -13 
L 1370 153 
C 992 153 979 191 979 420 
L 979 2776 
L 243 2706 
z
" transform="scale(0.015625)"/>
       <path id="CMR17-6d" d="M 4326 1933 
C 4326 2252 4269 2790 3507 2790 
C 3072 2790 2771 2496 2656 2151 
L 2650 2151 
C 2573 2676 2195 2790 1837 2790 
C 1331 2790 1069 2400 973 2144 
L 966 2144 
L 966 2790 
L 211 2720 
L 211 2554 
C 589 2554 646 2515 646 2208 
L 646 428 
C 646 184 621 153 211 153 
L 211 -13 
C 365 0 646 0 813 0 
C 979 0 1267 0 1421 -13 
L 1421 153 
C 1011 153 986 178 986 428 
L 986 1658 
C 986 2247 1344 2688 1792 2688 
C 2266 2688 2317 2266 2317 1958 
L 2317 428 
C 2317 184 2291 153 1882 153 
L 1882 -13 
C 2035 0 2317 0 2483 0 
C 2650 0 2938 0 3091 -13 
L 3091 153 
C 2682 153 2656 178 2656 428 
L 2656 1658 
C 2656 2247 3014 2688 3462 2688 
C 3936 2688 3987 2266 3987 1958 
L 3987 428 
C 3987 184 3962 153 3552 153 
L 3552 -13 
C 3706 0 3987 0 4154 0 
C 4320 0 4608 0 4762 -13 
L 4762 153 
C 4352 153 4326 178 4326 428 
L 4326 1933 
z
" transform="scale(0.015625)"/>
       <path id="CMR17-65" d="M 2438 1472 
C 2464 1498 2464 1511 2464 1576 
C 2464 2238 2118 2816 1389 2816 
C 710 2816 173 2169 173 1383 
C 173 551 781 -64 1459 -64 
C 2176 -64 2458 607 2458 740 
C 2458 784 2419 784 2406 784 
C 2362 784 2355 771 2330 696 
C 2189 265 1837 51 1504 51 
C 1229 51 954 203 781 480 
C 582 803 582 1176 582 1472 
L 2438 1472 
z
M 589 1568 
C 634 2505 1126 2714 1382 2714 
C 1818 2714 2112 2297 2118 1568 
L 589 1568 
z
" transform="scale(0.015625)"/>
       <path id="CMR17-73" d="M 1978 2697 
C 1978 2813 1971 2819 1933 2819 
C 1907 2819 1901 2813 1824 2717 
C 1805 2691 1747 2626 1728 2601 
C 1523 2819 1235 2819 1126 2819 
C 416 2819 160 2447 160 2076 
C 160 1498 813 1365 998 1325 
C 1402 1243 1542 1217 1677 1101 
C 1760 1025 1901 884 1901 654 
C 1901 384 1747 38 1158 38 
C 602 38 403 460 288 1021 
C 269 1110 269 1117 218 1117 
C 166 1117 160 1110 160 983 
L 160 63 
C 160 -51 166 -58 205 -58 
C 237 -58 243 -51 275 0 
C 314 57 410 211 448 276 
C 576 103 800 -64 1158 -64 
C 1792 -64 2131 283 2131 784 
C 2131 1112 1958 1285 1875 1362 
C 1683 1561 1459 1606 1190 1657 
C 838 1735 390 1825 390 2217 
C 390 2383 480 2737 1126 2737 
C 1811 2737 1850 2094 1862 1888 
C 1869 1856 1901 1849 1920 1849 
C 1978 1849 1978 1869 1978 1978 
L 1978 2697 
z
" transform="scale(0.015625)"/>
       <path id="CMR17-74" d="M 966 2560 
L 1862 2560 
L 1862 2725 
L 966 2725 
L 966 3904 
L 851 3904 
C 838 3245 614 2668 70 2668 
L 70 2560 
L 627 2560 
L 627 771 
C 627 650 627 -64 1370 -64 
C 1747 -64 1965 306 1965 777 
L 1965 1140 
L 1850 1140 
L 1850 783 
C 1850 344 1677 51 1408 51 
C 1222 51 966 178 966 758 
L 966 2560 
z
" transform="scale(0.015625)"/>
       <path id="CMR17-70" d="M 1408 -1063 
C 998 -1063 973 -1037 973 -789 
L 973 402 
C 1158 134 1427 -38 1766 -38 
C 2406 -38 3053 523 3053 1388 
C 3053 2191 2496 2802 1837 2802 
C 1453 2802 1139 2592 960 2338 
L 960 2802 
L 198 2732 
L 198 2567 
C 576 2567 634 2528 634 2223 
L 634 -789 
C 634 -1031 608 -1063 198 -1063 
L 198 -1228 
C 352 -1216 634 -1216 800 -1216 
C 966 -1216 1254 -1216 1408 -1228 
L 1408 -1063 
z
M 973 2012 
C 973 2102 973 2235 1222 2471 
C 1254 2497 1472 2688 1792 2688 
C 2259 2688 2643 2108 2643 1382 
C 2643 656 2234 64 1728 64 
C 1498 64 1248 172 1056 472 
C 973 612 973 650 973 752 
L 973 2012 
z
" transform="scale(0.015625)"/>
      </defs>
      <use xlink:href="#CMR17-54" transform="scale(0.996264)"/>
      <use xlink:href="#CMR17-69" transform="translate(66.509881 0) scale(0.996264)"/>
      <use xlink:href="#CMR17-6d" transform="translate(91.380939 0) scale(0.996264)"/>
      <use xlink:href="#CMR17-65" transform="translate(168.300529 0) scale(0.996264)"/>
      <use xlink:href="#CMR17-73" transform="translate(238.862156 0) scale(0.996264)"/>
      <use xlink:href="#CMR17-74" transform="translate(274.663493 0) scale(0.996264)"/>
      <use xlink:href="#CMR17-65" transform="translate(309.944261 0) scale(0.996264)"/>
      <use xlink:href="#CMR17-70" transform="translate(350.429922 0) scale(0.996264)"/>
     </g>
    </g>
   </g>
   <g id="matplotlib.axis_2">
    <g id="ytick_1">
     <g id="line2d_11">
      <path d="M 73.727141 276.531267 
L 335.16 276.531267 
" clip-path="url(#p57d9c63611)" style="fill: none; stroke-dasharray: 2.96,1.28; stroke-dashoffset: 0; stroke: #b0b0b0; stroke-opacity: 0.3; stroke-width: 0.8"/>
     </g>
     <g id="line2d_12">
      <defs>
       <path id="mf6970ca49a" d="M 0 0 
L 3 0 
" style="stroke: #000000; stroke-width: 0.5"/>
      </defs>
      <g>
       <use xlink:href="#mf6970ca49a" x="73.727141" y="276.531267" style="stroke: #000000; stroke-width: 0.5"/>
      </g>
     </g>
     <g id="text_7">
      <!-- $\mathdefault{0}$ -->
      <g transform="translate(59.718332 284.487538) scale(0.23 -0.23)">
       <use xlink:href="#CMR17-30" transform="scale(0.996264)"/>
      </g>
     </g>
    </g>
    <g id="ytick_2">
     <g id="line2d_13">
      <path d="M 73.727141 190.607291 
L 335.16 190.607291 
" clip-path="url(#p57d9c63611)" style="fill: none; stroke-dasharray: 2.96,1.28; stroke-dashoffset: 0; stroke: #b0b0b0; stroke-opacity: 0.3; stroke-width: 0.8"/>
     </g>
     <g id="line2d_14">
      <g>
       <use xlink:href="#mf6970ca49a" x="73.727141" y="190.607291" style="stroke: #000000; stroke-width: 0.5"/>
      </g>
     </g>
     <g id="text_8">
      <!-- $\mathdefault{10}$ -->
      <g transform="translate(49.209522 198.563562) scale(0.23 -0.23)">
       <defs>
        <path id="CMR17-31" d="M 1702 4058 
C 1702 4192 1696 4192 1606 4192 
C 1357 3916 979 3827 621 3827 
C 602 3827 570 3827 563 3808 
C 557 3795 557 3782 557 3648 
C 755 3648 1088 3686 1344 3839 
L 1344 461 
C 1344 236 1331 160 781 160 
L 589 160 
L 589 0 
C 896 0 1216 0 1523 0 
C 1830 0 2150 0 2458 0 
L 2458 160 
L 2266 160 
C 1715 160 1702 230 1702 458 
L 1702 4058 
z
" transform="scale(0.015625)"/>
       </defs>
       <use xlink:href="#CMR17-31" transform="scale(0.996264)"/>
       <use xlink:href="#CMR17-30" transform="translate(45.690477 0) scale(0.996264)"/>
      </g>
     </g>
    </g>
    <g id="ytick_3">
     <g id="line2d_15">
      <path d="M 73.727141 104.683315 
L 335.16 104.683315 
" clip-path="url(#p57d9c63611)" style="fill: none; stroke-dasharray: 2.96,1.28; stroke-dashoffset: 0; stroke: #b0b0b0; stroke-opacity: 0.3; stroke-width: 0.8"/>
     </g>
     <g id="line2d_16">
      <g>
       <use xlink:href="#mf6970ca49a" x="73.727141" y="104.683315" style="stroke: #000000; stroke-width: 0.5"/>
      </g>
     </g>
     <g id="text_9">
      <!-- $\mathdefault{20}$ -->
      <g transform="translate(49.209522 112.639586) scale(0.23 -0.23)">
       <use xlink:href="#CMR17-32" transform="scale(0.996264)"/>
       <use xlink:href="#CMR17-30" transform="translate(45.690477 0) scale(0.996264)"/>
      </g>
     </g>
    </g>
    <g id="text_10">
     <!-- Online Accuracy -->
     <g transform="translate(40.752542 242.760759) rotate(-90) scale(0.23 -0.23)">
      <defs>
       <path id="CMR17-4f" d="M 4307 2135 
C 4307 3437 3366 4416 2304 4416 
C 1216 4416 294 3424 294 2135 
C 294 845 1229 -128 2298 -128 
C 3392 -128 4307 864 4307 2135 
z
M 2304 -13 
C 1574 -13 781 711 781 2217 
C 781 3716 1651 4301 2298 4301 
C 2976 4301 3821 3698 3821 2217 
C 3821 686 3008 -13 2304 -13 
z
" transform="scale(0.015625)"/>
       <path id="CMR17-6e" d="M 2656 1933 
C 2656 2259 2592 2790 1837 2790 
C 1331 2790 1069 2400 973 2144 
L 966 2144 
L 966 2790 
L 211 2720 
L 211 2554 
C 589 2554 646 2515 646 2208 
L 646 428 
C 646 184 621 153 211 153 
L 211 -13 
C 365 0 646 0 813 0 
C 979 0 1267 0 1421 -13 
L 1421 153 
C 1011 153 986 178 986 428 
L 986 1658 
C 986 2247 1344 2688 1792 2688 
C 2266 2688 2317 2266 2317 1958 
L 2317 428 
C 2317 184 2291 153 1882 153 
L 1882 -13 
C 2035 0 2317 0 2483 0 
C 2650 0 2938 0 3091 -13 
L 3091 153 
C 2682 153 2656 178 2656 428 
L 2656 1933 
z
" transform="scale(0.015625)"/>
       <path id="CMR17-6c" d="M 979 4396 
L 218 4326 
L 218 4160 
C 595 4160 653 4122 653 3817 
L 653 426 
C 653 184 627 153 218 153 
L 218 -13 
C 371 0 653 0 813 0 
C 979 0 1261 0 1414 -13 
L 1414 153 
C 1005 153 979 178 979 426 
L 979 4396 
z
" transform="scale(0.015625)"/>
       <path id="CMR17-41" d="M 2323 4378 
C 2291 4461 2278 4480 2214 4480 
C 2150 4480 2138 4461 2106 4378 
L 749 566 
C 627 223 371 153 147 153 
L 147 -13 
C 262 0 518 0 640 0 
C 800 0 1056 0 1210 -13 
L 1210 153 
C 909 153 864 361 864 439 
C 864 497 877 530 890 569 
L 1229 1536 
L 2906 1536 
L 3290 442 
C 3322 365 3322 352 3322 327 
C 3322 153 3046 153 2925 153 
L 2925 0 
C 3110 0 3443 0 3642 0 
C 3808 0 4128 0 4282 -13 
L 4282 153 
C 3942 153 3827 153 3744 387 
L 2323 4378 
z
M 2067 3893 
L 2848 1702 
L 1286 1702 
L 2067 3893 
z
" transform="scale(0.015625)"/>
       <path id="CMR17-63" d="M 2234 2240 
C 2112 2240 1933 2240 1933 2017 
C 1933 1838 2080 1787 2163 1787 
C 2208 1787 2394 1807 2394 2024 
C 2394 2467 1958 2803 1466 2803 
C 787 2803 211 2178 211 1363 
C 211 516 813 -64 1466 -64 
C 2259 -64 2458 677 2458 748 
C 2458 774 2451 793 2406 793 
C 2362 793 2355 787 2330 703 
C 2163 180 1798 51 1523 51 
C 1114 51 621 427 621 1369 
C 621 2338 1094 2688 1472 2688 
C 1722 2688 2093 2573 2234 2240 
z
" transform="scale(0.015625)"/>
       <path id="CMR17-75" d="M 1882 2693 
L 1882 2528 
C 2259 2528 2317 2489 2317 2186 
L 2317 1032 
C 2317 500 2029 38 1555 38 
C 1030 38 986 348 986 678 
L 986 2763 
L 211 2693 
L 211 2528 
C 467 2528 640 2528 646 2274 
L 646 1058 
C 646 633 646 361 813 183 
C 896 101 1056 -64 1517 -64 
C 2061 -64 2272 377 2323 506 
L 2330 506 
L 2330 -63 
L 3091 -63 
L 3091 128 
C 2714 128 2656 166 2656 473 
L 2656 2763 
L 1882 2693 
z
" transform="scale(0.015625)"/>
       <path id="CMR17-72" d="M 960 1497 
C 960 2112 1222 2688 1702 2688 
C 1747 2688 1792 2682 1837 2662 
C 1837 2662 1696 2617 1696 2452 
C 1696 2298 1818 2234 1914 2234 
C 1990 2234 2131 2279 2131 2458 
C 2131 2663 1926 2790 1709 2790 
C 1222 2790 1011 2317 947 2093 
L 941 2093 
L 941 2790 
L 198 2720 
L 198 2554 
C 576 2554 634 2515 634 2208 
L 634 428 
C 634 184 608 153 198 153 
L 198 -13 
C 352 0 646 0 813 0 
C 998 0 1325 0 1498 -13 
L 1498 153 
C 1037 153 960 153 960 440 
L 960 1497 
z
" transform="scale(0.015625)"/>
       <path id="CMR17-61" d="M 2304 1653 
C 2304 2072 2304 2294 2035 2543 
C 1798 2752 1523 2816 1306 2816 
C 800 2816 435 2407 435 1971 
C 435 1728 627 1728 666 1728 
C 749 1728 896 1778 896 1954 
C 896 2112 774 2181 666 2181 
C 640 2181 608 2174 589 2168 
C 723 2592 1069 2714 1293 2714 
C 1613 2714 1965 2429 1965 1885 
L 1965 1600 
C 1587 1600 1133 1549 774 1357 
C 371 1133 256 813 256 570 
C 256 77 832 -64 1171 -64 
C 1523 -64 1850 139 1990 511 
C 2003 233 2182 -18 2464 -18 
C 2598 -18 2938 70 2938 567 
L 2938 920 
L 2822 920 
L 2822 562 
C 2822 178 2650 128 2566 128 
C 2304 128 2304 458 2304 738 
L 2304 1653 
z
M 1965 870 
C 1965 317 1568 38 1216 38 
C 896 38 646 275 646 570 
C 646 761 730 1100 1101 1305 
C 1408 1478 1760 1504 1965 1504 
L 1965 870 
z
" transform="scale(0.015625)"/>
       <path id="CMR17-79" d="M 2496 2197 
C 2656 2586 2944 2586 3034 2586 
L 3034 2752 
C 2912 2752 2752 2752 2630 2752 
C 2496 2752 2285 2752 2157 2758 
L 2157 2592 
C 2400 2573 2406 2394 2406 2343 
C 2406 2280 2394 2248 2362 2171 
L 1664 449 
L 902 2306 
C 870 2382 870 2426 870 2433 
C 870 2573 1018 2586 1171 2586 
L 1171 2758 
C 1018 2752 742 2752 582 2752 
C 410 2752 205 2752 64 2758 
L 64 2586 
C 410 2586 448 2554 531 2350 
L 1485 15 
C 1197 -738 1030 -1178 627 -1178 
C 557 -1178 397 -1159 282 -1044 
C 429 -1031 493 -942 493 -833 
C 493 -725 416 -629 288 -629 
C 147 -629 77 -725 77 -840 
C 77 -1095 339 -1280 627 -1280 
C 998 -1280 1229 -922 1357 -604 
L 2496 2197 
z
" transform="scale(0.015625)"/>
      </defs>
      <use xlink:href="#CMR17-4f" transform="scale(0.996264)"/>
      <use xlink:href="#CMR17-6e" transform="translate(71.714788 0) scale(0.996264)"/>
      <use xlink:href="#CMR17-6c" transform="translate(122.610158 0) scale(0.996264)"/>
      <use xlink:href="#CMR17-69" transform="translate(147.481217 0) scale(0.996264)"/>
      <use xlink:href="#CMR17-6e" transform="translate(172.352275 0) scale(0.996264)"/>
      <use xlink:href="#CMR17-65" transform="translate(223.247645 0) scale(0.996264)"/>
      <use xlink:href="#CMR17-41" transform="translate(293.809272 0) scale(0.996264)"/>
      <use xlink:href="#CMR17-63" transform="translate(362.881702 0) scale(0.996264)"/>
      <use xlink:href="#CMR17-63" transform="translate(403.367362 0) scale(0.996264)"/>
      <use xlink:href="#CMR17-75" transform="translate(443.853022 0) scale(0.996264)"/>
      <use xlink:href="#CMR17-72" transform="translate(494.748392 0) scale(0.996264)"/>
      <use xlink:href="#CMR17-61" transform="translate(530.02916 0) scale(0.996264)"/>
      <use xlink:href="#CMR17-63" transform="translate(575.719637 0) scale(0.996264)"/>
      <use xlink:href="#CMR17-79" transform="translate(616.205298 0) scale(0.996264)"/>
     </g>
    </g>
   </g>
   <g id="line2d_17">
    <path d="M 84.165489 234.016801 
L 84.395599 254.474888 
L 84.453126 249.680024 
L 84.568181 255.050273 
L 84.740763 254.843724 
L 84.913345 258.071038 
L 85.143455 252.700789 
L 85.488619 237.803512 
L 85.603674 239.85055 
L 85.776256 239.502536 
L 85.891311 236.864657 
L 86.121421 225.187337 
L 86.639167 228.66601 
L 86.869277 227.662005 
L 86.984332 226.314281 
L 87.214441 228.103132 
L 87.329496 229.773071 
L 87.444551 228.310912 
L 87.674661 223.038557 
L 87.90477 221.545448 
L 88.307462 222.38126 
L 88.480044 223.517275 
L 88.710154 220.618467 
L 89.055318 222.523653 
L 89.803175 219.439144 
L 90.033284 217.330669 
L 90.090812 217.445869 
L 90.320921 217.519561 
L 90.493504 218.848619 
L 90.723613 219.673187 
L 91.183832 220.465872 
L 91.586524 208.030087 
L 91.874161 209.648155 
L 92.046743 203.79317 
L 92.219326 203.629201 
L 92.622017 195.93279 
L 92.737072 196.595828 
L 92.909655 195.760996 
L 93.254819 196.436177 
L 93.427401 197.328288 
L 93.657511 197.495911 
L 93.945148 198.577295 
L 94.060203 197.511898 
L 94.11773 197.770168 
L 94.405367 198.314043 
L 94.980641 198.121419 
L 95.268278 198.340724 
L 95.325806 198.192423 
L 95.90108 197.598988 
L 95.958607 194.00888 
L 96.246244 190.588378 
L 96.763991 191.774469 
L 97.454319 191.588392 
L 97.972066 189.37523 
L 98.029594 189.347262 
L 98.259703 187.938408 
L 98.374758 187.814763 
L 98.950032 188.567627 
L 99.065087 187.394369 
L 99.467779 187.418083 
L 99.985525 188.395448 
L 100.388217 185.59035 
L 100.560799 186.141404 
L 100.733382 186.219742 
L 101.078546 186.66549 
L 101.481238 187.76318 
L 101.596293 187.663307 
L 101.941457 187.113188 
L 102.114039 187.048436 
L 102.689313 186.455673 
L 103.149533 186.785225 
L 104.012444 186.814938 
L 104.242553 185.202716 
L 105.047937 184.386018 
L 105.220519 184.04365 
L 106.256012 183.714082 
L 106.428595 184.118243 
L 106.543649 183.836259 
L 106.716232 184.064423 
L 107.003869 183.458148 
L 107.061396 183.372189 
L 107.291506 183.314361 
L 109.017328 182.366734 
L 109.535075 181.72038 
L 109.650129 181.964924 
L 109.765184 181.847671 
L 109.995294 181.37866 
L 110.455513 178.465863 
L 110.685623 178.124938 
L 110.97326 177.284722 
L 111.145842 177.4462 
L 111.663588 177.220749 
L 111.951226 176.253479 
L 112.29639 173.560571 
L 112.929191 173.43691 
L 113.504465 173.091174 
L 113.792102 172.055056 
L 114.367377 172.126723 
L 114.482431 172.22939 
L 114.827596 172.01932 
L 115.517925 171.404736 
L 115.690507 170.783178 
L 115.805562 170.643661 
L 116.035671 170.753277 
L 116.438363 170.816398 
L 117.013637 170.213917 
L 117.588911 169.160779 
L 118.164185 169.103697 
L 118.221713 169.193991 
L 118.624404 168.970186 
L 119.60237 169.462478 
L 119.717425 169.061439 
L 120.177644 168.806127 
L 120.292699 168.626294 
L 120.580336 168.091933 
L 120.752918 168.023256 
L 121.328192 166.199136 
L 121.61583 165.985444 
L 121.730884 166.107581 
L 121.903467 166.080572 
L 122.133576 165.764828 
L 122.881432 165.571285 
L 123.341652 165.956362 
L 123.801871 165.110255 
L 124.837364 164.14369 
L 125.58522 164.094008 
L 125.872857 163.815064 
L 126.620714 162.522193 
L 127.13846 162.422435 
L 127.426097 160.866426 
L 127.656207 160.57388 
L 128.001371 160.465452 
L 128.173954 160.184623 
L 128.346536 160.184591 
L 128.806755 159.009685 
L 129.266974 158.336331 
L 129.612139 156.970439 
L 130.820214 155.684181 
L 132.143345 153.880113 
L 132.373454 153.082598 
L 132.603564 153.198269 
L 133.696585 151.753794 
L 134.041749 151.595831 
L 134.386913 151.010902 
L 135.479934 149.820403 
L 136.22779 148.810433 
L 136.803064 148.117683 
L 137.378338 147.295191 
L 137.435866 147.311465 
L 137.78103 147.243256 
L 138.24125 147.179749 
L 138.701469 147.194958 
L 139.046633 146.99577 
L 139.219215 146.470561 
L 139.391798 146.311107 
L 139.794489 145.735266 
L 140.139654 146.009744 
L 140.427291 145.867539 
L 141.11762 144.816868 
L 141.635366 144.814131 
L 141.865476 144.410346 
L 141.923003 143.788272 
L 142.958497 142.595962 
L 144.051517 141.95999 
L 144.396682 141.917035 
L 145.202066 138.407617 
L 145.834867 138.653267 
L 146.410141 139.076415 
L 146.87036 139.173526 
L 147.215525 139.007214 
L 147.733271 139.324565 
L 148.078436 139.033141 
L 148.768765 138.18537 
L 148.998874 138.217672 
L 149.113929 138.082514 
L 149.74673 138.093495 
L 150.20695 137.055271 
L 150.379532 137.039767 
L 150.609642 136.512936 
L 152.335464 135.957785 
L 152.623101 135.882971 
L 152.910738 135.68552 
L 154.809142 134.242577 
L 156.017218 133.803622 
L 156.534964 133.235917 
L 156.650019 133.143928 
L 157.225293 133.094368 
L 159.814026 132.664231 
L 159.929081 132.571995 
L 160.561883 132.389917 
L 160.964574 132.100476 
L 161.654903 132.240648 
L 162.057595 132.490281 
L 162.345232 132.427627 
L 162.460287 132.417466 
L 163.093088 131.65172 
L 163.783417 131.327421 
L 164.128582 131.037243 
L 164.416219 130.241932 
L 164.703856 130.117361 
L 164.991493 129.431085 
L 165.509239 128.873115 
L 166.142041 128.351151 
L 166.199568 128.144801 
L 166.659788 127.345246 
L 167.522699 126.972436 
L 168.040445 126.386687 
L 168.270555 125.687775 
L 169.018411 125.079721 
L 169.363576 124.384775 
L 169.70874 124.213546 
L 171.204453 123.46945 
L 171.894781 123.441409 
L 172.182418 123.270753 
L 172.527583 122.71675 
L 172.930275 122.892142 
L 173.793186 122.940783 
L 174.080823 122.526707 
L 174.13835 122.547881 
L 174.310932 122.303378 
L 174.598569 122.490373 
L 174.713624 122.434586 
L 175.346426 121.76886 
L 175.403953 121.836677 
L 176.439446 121.434842 
L 176.554501 121.143681 
L 176.727083 121.116377 
L 177.532467 120.448095 
L 177.992686 120.316691 
L 178.280323 119.933146 
L 178.913125 120.012926 
L 179.143234 119.904433 
L 179.660981 119.924591 
L 180.006145 119.711325 
L 180.408837 119.57325 
L 180.869057 119.083179 
L 181.156694 118.98093 
L 181.559385 118.720841 
L 181.67444 118.681377 
L 181.962077 118.671823 
L 182.134659 118.528389 
L 182.594879 118.60789 
L 183.170153 118.129963 
L 183.400262 118.201385 
L 184.435756 117.396126 
L 184.665865 117.518206 
L 184.895975 117.245531 
L 185.988996 116.752739 
L 186.219105 116.489094 
L 186.506742 116.309064 
L 186.794379 115.814486 
L 188.002455 115.089663 
L 188.175037 115.0865 
L 188.865366 114.735225 
L 188.980421 114.710232 
L 190.878825 113.844958 
L 191.454099 113.698885 
L 192.259483 113.037585 
L 192.432065 112.881138 
L 192.777229 112.601662 
L 193.582613 112.083271 
L 194.618106 111.074268 
L 194.733161 111.096229 
L 195.250908 110.481178 
L 195.481017 110.474065 
L 196.056291 109.765483 
L 196.919202 109.09058 
L 197.552004 108.544378 
L 198.357388 107.93775 
L 198.760079 107.415541 
L 199.8531 106.841149 
L 200.600956 106.591517 
L 201.003648 106.367795 
L 201.981614 105.676978 
L 203.074635 105.558898 
L 203.304744 105.441981 
L 204.110128 105.508912 
L 204.340238 105.601672 
L 204.397765 105.349778 
L 205.030567 105.66408 
L 206.756389 104.656257 
L 206.928971 104.712208 
L 207.561772 104.532687 
L 208.021992 104.632248 
L 208.424683 104.605108 
L 208.654793 104.380354 
L 209.057485 104.116397 
L 210.150506 104.015394 
L 211.358581 103.523274 
L 211.646218 102.857336 
L 211.933855 102.948965 
L 211.991383 102.855025 
L 212.106437 102.917548 
L 212.624184 102.403483 
L 213.084403 101.785793 
L 214.350006 101.390891 
L 214.752698 100.861176 
L 214.810225 100.8912 
L 215.443027 100.61156 
L 215.788191 100.521438 
L 215.903246 100.537352 
L 216.420993 100.513899 
L 217.398959 100.333738 
L 217.974233 100.173719 
L 218.319397 100.198532 
L 218.952199 99.620388 
L 221.195767 98.57002 
L 221.598459 98.493042 
L 221.943624 98.081915 
L 222.576425 97.720823 
L 223.036644 97.640551 
L 225.452795 96.93151 
L 225.56785 97.017453 
L 225.970542 96.939098 
L 226.488289 97.160739 
L 230.22757 95.586424 
L 230.860371 95.240688 
L 230.975426 95.23546 
L 231.378118 94.915946 
L 232.010919 94.567916 
L 232.068447 94.625571 
L 232.298556 94.439117 
L 232.931358 94.45308 
L 235.289981 93.539542 
L 238.338934 92.428126 
L 239.834646 91.811271 
L 240.122284 91.770677 
L 240.927667 91.180913 
L 240.985195 90.961042 
L 241.272832 90.684139 
L 241.96316 90.366886 
L 242.595962 89.295705 
L 243.056181 88.99743 
L 243.286291 89.025914 
L 243.631455 88.928172 
L 244.436839 88.264495 
L 245.414805 87.139575 
L 245.587387 87.076593 
L 246.105134 86.573968 
L 246.450298 86.190751 
L 246.737935 85.468878 
L 247.773428 84.309574 
L 248.061065 83.698014 
L 248.751394 82.748076 
L 249.039031 82.533613 
L 249.154086 82.530811 
L 249.844415 81.440651 
L 250.016997 81.406186 
L 250.189579 81.160355 
L 250.937436 80.996943 
L 251.340127 80.888253 
L 253.008422 80.11415 
L 254.61919 79.983515 
L 255.654683 79.682144 
L 256.114902 79.800142 
L 256.287484 79.74842 
L 256.575121 79.765365 
L 257.035341 79.487511 
L 258.646108 79.228586 
L 258.876217 79.134892 
L 259.451492 79.040379 
L 260.60204 78.673911 
L 261.119786 78.480459 
L 261.810115 77.93111 
L 262.500444 77.777564 
L 263.305828 77.522376 
L 263.766047 77.4669 
L 265.376814 76.89913 
L 266.009616 76.769987 
L 266.067143 76.718575 
L 267.275219 76.440623 
L 268.253184 75.73586 
L 269.748897 74.89748 
L 270.151589 74.296441 
L 271.187082 72.669354 
L 272.107521 72.480294 
L 275.789275 72.70264 
L 275.846802 72.651032 
L 276.824768 72.707753 
L 277.112405 72.613403 
L 277.342514 72.634381 
L 277.572624 72.483769 
L 279.816193 72.532033 
L 279.87372 72.495339 
L 282.059762 72.265291 
L 282.174816 72.303985 
L 282.462453 71.899512 
L 282.692563 71.914933 
L 284.130748 71.772221 
L 284.30333 71.782824 
L 284.590967 71.681771 
L 284.76355 71.55589 
L 285.281296 71.403967 
L 285.914098 71.413783 
L 286.892064 70.790374 
L 289.308215 69.406545 
L 289.998544 68.784676 
L 290.228653 68.737476 
L 290.976509 68.876305 
L 292.414695 68.901052 
L 292.414695 68.901052 
" clip-path="url(#p57d9c63611)" style="fill: none; stroke: #7f2704; stroke-width: 3; stroke-linecap: square"/>
   </g>
   <g id="line2d_18">
    <path d="M 292.414695 68.901052 
" clip-path="url(#p57d9c63611)" style="fill: none; stroke: #7f2704; stroke-opacity: 0.8; stroke-width: 3; stroke-linecap: square"/>
    <defs>
     <path id="m66922ced99" d="M 0 -5 
L -1.12257 -1.545085 
L -4.755283 -1.545085 
L -1.816356 0.59017 
L -2.938926 4.045085 
L -0 1.90983 
L 2.938926 4.045085 
L 1.816356 0.59017 
L 4.755283 -1.545085 
L 1.12257 -1.545085 
z
" style="stroke: #000000; stroke-opacity: 0.8; stroke-width: 0.5; stroke-linejoin: bevel"/>
    </defs>
    <g clip-path="url(#p57d9c63611)">
     <use xlink:href="#m66922ced99" x="292.414695" y="68.901052" style="fill: #7f2704; fill-opacity: 0.8; stroke: #000000; stroke-opacity: 0.8; stroke-width: 0.5; stroke-linejoin: bevel"/>
    </g>
   </g>
   <g id="line2d_19">
    <path d="M 84.223016 276.531267 
L 84.338071 276.531267 
L 84.683236 275.971866 
L 84.913345 276.111716 
L 85.316037 273.028931 
L 85.546147 273.299173 
L 86.121421 269.999884 
L 86.294003 270.321917 
L 86.466585 269.974568 
L 86.524113 270.123584 
L 86.754222 269.259055 
L 86.81175 267.90051 
L 87.559606 269.060558 
L 87.617133 269.072588 
L 87.789715 269.411619 
L 87.962298 267.483565 
L 88.019825 267.516921 
L 88.13488 267.021451 
L 88.36499 267.345316 
L 88.767681 266.583367 
L 88.825209 266.541965 
L 88.882736 266.659486 
L 88.997791 266.577789 
L 89.342955 265.487611 
L 90.551031 265.578786 
L 90.953723 265.158323 
L 91.01125 265.251544 
L 91.126305 265.162797 
L 91.24136 264.703934 
L 91.413942 264.874913 
L 91.874161 264.37961 
L 92.046743 263.728978 
L 92.737072 261.957401 
L 93.369874 262.117256 
L 93.945148 261.592353 
L 94.34784 260.457815 
L 94.520422 260.537903 
L 95.095696 258.201467 
L 95.325806 258.164744 
L 95.613443 258.054421 
L 95.728497 257.774884 
L 95.90108 256.976557 
L 96.188717 252.244825 
L 96.476354 251.381427 
L 96.533881 251.466001 
L 96.648936 251.327713 
L 96.763991 250.617398 
L 97.051628 250.715038 
L 97.339265 250.345518 
L 97.454319 250.425892 
L 97.799484 248.001822 
L 97.857011 247.925223 
L 98.662395 245.099518 
L 98.719922 245.143633 
L 98.834977 245.074724 
L 99.180142 243.399478 
L 100.158108 242.107209 
L 100.503272 242.335696 
L 100.848436 242.279894 
L 100.905964 242.076738 
L 101.42371 242.21396 
L 102.746841 240.599198 
L 103.379642 240.696412 
L 103.494697 240.472186 
L 103.609752 239.738763 
L 104.012444 239.610808 
L 104.472663 237.461201 
L 104.7603 237.518865 
L 104.875355 237.049583 
L 105.220519 236.399939 
L 106.888814 235.343622 
L 107.349033 234.30339 
L 107.981835 233.920214 
L 108.039362 233.55643 
L 108.672163 232.92147 
L 110.225403 232.397483 
L 111.030787 231.384047 
L 111.318424 231.124401 
L 111.606061 231.135885 
L 111.721116 230.962144 
L 111.951226 231.171453 
L 112.641554 231.159136 
L 113.61952 229.802283 
L 114.309849 229.528854 
L 114.424904 229.630419 
L 114.482431 229.541592 
L 114.539959 229.541592 
L 114.942651 228.767997 
L 115.230288 228.738034 
L 116.035671 228.107438 
L 116.380836 228.039257 
L 116.49589 228.115862 
L 116.668473 227.922483 
L 116.898582 227.32355 
L 117.416329 226.907306 
L 117.646439 226.581073 
L 117.934076 226.173809 
L 118.04913 225.992419 
L 118.27924 226.140135 
L 119.257206 226.278267 
L 119.659898 225.979472 
L 120.005062 225.927827 
L 120.120117 225.736239 
L 120.465281 224.914625 
L 122.536268 222.438034 
L 122.766378 222.450314 
L 123.054015 222.393785 
L 123.456706 222.163372 
L 125.355111 219.383681 
L 126.390604 218.301961 
L 127.080933 217.460324 
L 127.253515 217.071117 
L 127.483625 216.941753 
L 128.173954 215.775086 
L 128.576646 215.405714 
L 128.806755 214.866476 
L 129.036865 214.615664 
L 129.266974 214.060333 
L 129.497084 214.062242 
L 130.359995 213.900576 
L 130.47505 213.764824 
L 130.532577 213.410931 
L 130.935269 212.899415 
L 131.222906 212.493835 
L 131.79818 212.246612 
L 132.143345 211.737005 
L 132.315927 211.089353 
L 133.696585 209.760557 
L 134.099276 209.403161 
L 134.214331 209.157101 
L 134.444441 209.043408 
L 135.249824 207.828551 
L 135.364879 207.448702 
L 135.594989 207.195488 
L 136.055208 206.369416 
L 136.975647 205.430868 
L 137.205756 205.056165 
L 137.723503 204.860877 
L 138.01114 204.906503 
L 139.679435 204.236796 
L 139.794489 204.323574 
L 140.369764 204.046613 
L 140.88751 203.185838 
L 141.232675 202.939974 
L 141.692894 202.469488 
L 142.095586 201.214859 
L 142.21064 201.257576 
L 142.613332 200.911685 
L 142.900969 200.336933 
L 143.188606 200.23747 
L 143.76388 199.963877 
L 144.051517 199.636152 
L 144.626791 199.448584 
L 145.087011 198.215146 
L 145.144538 198.25724 
L 146.122504 198.10326 
L 146.467668 198.048251 
L 147.330579 197.483505 
L 147.618217 197.549527 
L 148.768765 196.973136 
L 148.941347 197.000219 
L 149.919313 196.036113 
L 150.20695 195.359333 
L 150.839751 195.313191 
L 151.184916 195.069474 
L 151.357498 195.071793 
L 151.702662 194.728516 
L 152.047827 194.649727 
L 152.508046 194.737554 
L 153.31343 194.239452 
L 153.716121 194.299337 
L 154.291395 194.269124 
L 154.463978 194.289749 
L 155.269361 193.924142 
L 155.614526 193.966392 
L 156.1898 193.880786 
L 156.362382 193.779069 
L 157.225293 193.594041 
L 158.030677 193.192272 
L 158.088204 193.230917 
L 158.663478 192.553899 
L 159.06617 192.525973 
L 159.411335 192.275513 
L 160.676937 191.344545 
L 161.137157 191.292084 
L 161.194684 191.190532 
L 162.460287 191.513815 
L 163.035561 191.287365 
L 163.208143 191.10259 
L 163.49578 190.799637 
L 164.416219 190.249083 
L 164.933965 189.899275 
L 165.509239 189.43527 
L 166.257096 188.574675 
L 166.314623 188.43442 
L 167.004952 187.678401 
L 167.982918 186.961224 
L 168.213027 186.32558 
L 168.903356 185.717305 
L 169.306048 185.738578 
L 169.823795 185.530392 
L 171.204453 184.872181 
L 171.319507 184.798366 
L 171.779727 184.694208 
L 171.952309 184.597809 
L 172.642638 183.701938 
L 173.563076 183.590962 
L 174.13835 183.280175 
L 175.576535 183.230787 
L 175.69159 183.267842 
L 176.899666 182.70571 
L 177.359885 182.378206 
L 178.050214 182.260412 
L 178.107741 182.174429 
L 178.740543 181.84273 
L 179.718508 181.285195 
L 180.006145 181.091915 
L 181.099166 180.495923 
L 181.789495 179.98131 
L 182.940043 179.386753 
L 183.22768 179.026234 
L 184.378228 178.601169 
L 186.219105 177.335043 
L 186.679324 177.196715 
L 186.736852 177.030574 
L 187.427181 176.694073 
L 187.944927 176.463206 
L 188.405147 176.578811 
L 188.692784 176.440311 
L 188.980421 176.346707 
L 189.383112 176.036977 
L 191.569154 174.823213 
L 191.914318 174.776366 
L 192.259483 174.572876 
L 192.662175 174.232868 
L 193.582613 173.682552 
L 193.927777 173.327515 
L 195.078326 172.675638 
L 195.19338 172.477491 
L 195.481017 172.361467 
L 196.113819 171.761133 
L 197.667059 171.4024 
L 198.414915 171.006154 
L 198.52997 170.926718 
L 199.910628 170.01912 
L 200.370847 169.889494 
L 201.003648 169.532237 
L 201.40634 169.435462 
L 202.384306 168.972989 
L 203.707436 168.255344 
L 205.951005 168.287196 
L 206.871444 167.884927 
L 207.561772 167.998124 
L 208.079519 167.865891 
L 208.309629 167.874438 
L 209.057485 167.563889 
L 211.128471 167.103342 
L 211.703746 166.489552 
L 212.27902 166.537497 
L 212.509129 166.304753 
L 213.256985 166.120921 
L 214.292479 165.581692 
L 214.92528 165.625368 
L 215.097862 165.44147 
L 217.341431 164.634679 
L 217.456486 164.456264 
L 217.974233 164.292729 
L 220.275329 162.844198 
L 220.678021 162.738392 
L 220.793075 162.628023 
L 222.001151 162.447067 
L 222.231261 162.259842 
L 222.576425 162.304813 
L 223.209226 162.00018 
L 223.381809 162.045019 
L 223.784501 161.747728 
L 224.129665 161.765903 
L 224.704939 161.507831 
L 225.79796 161.307847 
L 226.028069 161.383047 
L 226.258179 161.308708 
L 227.12109 161.110315 
L 228.90444 159.807241 
L 229.249604 159.693798 
L 229.364659 159.512662 
L 230.22757 159.028032 
L 231.090481 158.570091 
L 238.511516 154.486068 
L 238.684098 154.430011 
L 238.856681 154.226947 
L 239.08679 154.077252 
L 240.294866 153.820499 
L 240.927667 153.291644 
L 241.905633 152.983757 
L 242.19327 152.932559 
L 242.250797 152.770073 
L 242.711017 152.201935 
L 243.056181 152.008024 
L 243.804037 151.607263 
L 244.379311 151.183738 
L 245.472332 150.862765 
L 246.737935 149.941753 
L 247.830956 149.829326 
L 248.40623 149.225092 
L 249.556778 148.610007 
L 249.614305 148.474899 
L 249.95947 148.347993 
L 250.419689 148.354409 
L 252.60573 147.648048 
L 253.181004 147.358165 
L 253.813806 147.232349 
L 255.654683 146.520055 
L 256.460066 146.54277 
L 257.49556 145.894097 
L 258.703635 145.444686 
L 259.451492 145.158261 
L 259.624074 145.104858 
L 260.199348 145.047408 
L 262.500444 144.700148 
L 263.996157 144.038536 
L 264.571431 143.90033 
L 264.80154 143.607792 
L 265.894561 143.296202 
L 266.527362 142.960512 
L 268.310712 142.430092 
L 269.748897 141.678408 
L 269.979007 141.2971 
L 271.187082 140.298758 
L 271.417192 140.237308 
L 271.704829 140.067628 
L 272.56774 140.124825 
L 273.200541 139.919753 
L 273.545706 139.950531 
L 274.523672 139.996911 
L 275.041418 139.942451 
L 275.904329 139.87647 
L 276.99735 139.727989 
L 281.887179 139.082569 
L 282.577508 139.212286 
L 284.706022 138.827266 
L 285.396351 138.739373 
L 286.201735 138.449801 
L 287.064646 137.924085 
L 288.675413 137.164043 
L 288.847995 137.147605 
L 289.078105 136.963183 
L 289.825961 136.481552 
L 292.529749 136.382597 
L 292.529749 136.382597 
" clip-path="url(#p57d9c63611)" style="fill: none; stroke: #c54102; stroke-width: 3; stroke-linecap: square"/>
   </g>
   <g id="line2d_20">
    <path d="M 292.529749 136.382597 
" clip-path="url(#p57d9c63611)" style="fill: none; stroke: #c54102; stroke-opacity: 0.8; stroke-width: 3; stroke-linecap: square"/>
    <defs>
     <path id="m8108015110" d="M -0 7.071068 
L 4.242641 0 
L -0 -7.071068 
L -4.242641 -0 
z
" style="stroke: #000000; stroke-opacity: 0.8; stroke-width: 0.5; stroke-linejoin: miter"/>
    </defs>
    <g clip-path="url(#p57d9c63611)">
     <use xlink:href="#m8108015110" x="292.529749" y="136.382597" style="fill: #c54102; fill-opacity: 0.8; stroke: #000000; stroke-opacity: 0.8; stroke-width: 0.5; stroke-linejoin: miter"/>
    </g>
   </g>
   <g id="line2d_21">
    <path d="M 84.280544 276.531267 
L 85.546147 276.531267 
L 85.833784 275.48239 
L 86.006366 275.572294 
L 86.466585 275.438484 
L 87.502078 275.430806 
L 87.732188 274.155964 
L 87.789715 274.191954 
L 88.192407 273.680621 
L 88.307462 273.756638 
L 88.537572 273.642209 
L 89.342955 272.12824 
L 89.630592 272.078892 
L 90.551031 271.64387 
L 90.608558 271.569624 
L 90.781141 270.95622 
L 91.298887 270.611307 
L 93.197292 268.559804 
L 94.002675 267.233638 
L 94.405367 266.96273 
L 94.923114 264.730852 
L 95.038168 264.783848 
L 95.67097 264.263027 
L 95.90108 263.786655 
L 96.131189 259.765147 
L 96.706463 258.822812 
L 96.936573 258.600603 
L 97.454319 257.913257 
L 97.914539 255.200063 
L 98.259703 254.579292 
L 98.834977 254.415418 
L 99.410251 252.810999 
L 99.985525 252.384467 
L 100.273162 251.957162 
L 100.445745 252.02716 
L 101.65382 250.838914 
L 101.711347 250.747971 
L 101.826402 250.849352 
L 101.941457 250.497609 
L 102.171567 250.232344 
L 102.459204 249.282693 
L 102.574259 249.389068 
L 103.034478 249.274416 
L 104.069971 248.852944 
L 104.242553 247.200861 
L 104.300081 247.2269 
L 104.472663 247.096723 
L 104.587718 247.242412 
L 104.702772 247.032193 
L 104.875355 246.388342 
L 105.335574 245.590819 
L 105.565684 245.598636 
L 105.853321 245.334362 
L 106.198485 245.175832 
L 107.233978 243.449074 
L 107.809252 242.334848 
L 107.981835 242.275006 
L 108.614636 241.336063 
L 108.902273 241.323894 
L 109.017328 241.177129 
L 109.304965 240.99914 
L 109.937766 240.45177 
L 110.97326 239.560712 
L 111.145842 239.497034 
L 111.433479 239.111219 
L 111.606061 239.177274 
L 112.411445 239.012908 
L 113.216828 238.342245 
L 113.561993 238.278694 
L 113.964685 238.14842 
L 114.309849 237.782936 
L 114.712541 237.649761 
L 114.770068 237.396208 
L 115.345342 236.968795 
L 115.805562 236.023765 
L 116.150726 235.930169 
L 116.553418 235.578377 
L 116.783528 235.017831 
L 117.358802 234.749806 
L 117.703966 234.032075 
L 118.221713 233.715945 
L 119.717425 233.054739 
L 120.292699 232.403313 
L 120.695391 231.666965 
L 120.810446 231.219795 
L 121.213138 230.288614 
L 121.845939 229.919061 
L 122.421213 228.968791 
L 123.226597 228.783693 
L 123.571761 228.292696 
L 123.629289 228.060681 
L 124.4922 227.10057 
L 124.952419 226.798014 
L 125.355111 226.18052 
L 125.700275 225.958339 
L 125.987912 225.5231 
L 126.160495 225.466285 
L 127.943844 222.468538 
L 128.116426 222.084858 
L 128.519118 221.753343 
L 128.634173 221.505251 
L 129.266974 220.969324 
L 130.129885 220.778109 
L 130.647632 220.08075 
L 131.222906 219.484639 
L 131.855708 219.415897 
L 132.373454 218.534501 
L 132.891201 218.279865 
L 133.006256 218.006903 
L 133.35142 217.868501 
L 133.926694 217.198682 
L 134.847133 216.1995 
L 135.767571 214.937501 
L 136.630482 213.981077 
L 137.263284 212.962544 
L 137.896085 212.605537 
L 138.01114 212.634459 
L 138.356304 212.329805 
L 140.024599 211.512112 
L 140.599873 211.24509 
L 141.865476 210.003712 
L 142.498277 209.165541 
L 143.648826 208.490425 
L 143.99399 208.289721 
L 144.626791 207.823675 
L 144.741846 207.934733 
L 145.892394 207.943313 
L 146.064977 207.735848 
L 146.467668 207.746591 
L 146.985415 207.435296 
L 147.330579 207.226529 
L 148.481128 206.840198 
L 149.113929 206.147562 
L 149.631676 205.879083 
L 149.919313 205.589863 
L 150.264477 204.665737 
L 150.379532 204.656494 
L 152.047827 203.723092 
L 152.392991 203.706589 
L 153.716121 203.282982 
L 154.348923 203.266675 
L 155.211834 202.853016 
L 156.247327 202.717072 
L 158.030677 202.054018 
L 158.088204 202.070144 
L 158.893588 201.530301 
L 159.526389 201.187252 
L 160.274246 200.705867 
L 160.61941 200.412428 
L 161.424794 200.16681 
L 162.40276 200.291864 
L 162.575342 200.134959 
L 162.978034 199.908418 
L 163.093088 199.624426 
L 164.876438 198.488878 
L 165.04902 198.111921 
L 165.681822 197.911021 
L 166.142041 197.354887 
L 166.37215 196.849451 
L 166.544733 196.744719 
L 166.774842 196.346064 
L 167.580226 195.755784 
L 168.38561 195.144731 
L 168.730774 194.660495 
L 169.190993 194.848915 
L 170.284014 194.017402 
L 170.859288 193.977037 
L 170.974343 193.984117 
L 171.319507 193.717825 
L 172.067364 193.6274 
L 172.527583 193.111836 
L 173.850713 192.793035 
L 174.253405 192.678896 
L 174.656097 192.795772 
L 175.116316 192.468572 
L 176.036755 192.331644 
L 176.784611 192.107168 
L 177.532467 191.630314 
L 179.603454 190.864167 
L 180.006145 190.451238 
L 180.926584 189.706937 
L 181.099166 189.733986 
L 181.67444 189.268678 
L 181.90455 189.252896 
L 182.077132 189.079684 
L 182.99757 188.558736 
L 183.45779 188.154337 
L 184.608338 187.729493 
L 185.356194 187.074109 
L 186.621797 186.423822 
L 187.024489 186.026388 
L 188.520201 185.573978 
L 188.980421 185.409919 
L 189.613222 184.968678 
L 190.188496 184.777397 
L 190.706243 184.343211 
L 191.511626 184.035276 
L 192.719702 183.105995 
L 193.87025 182.509742 
L 196.286401 180.818691 
L 198.127278 179.956792 
L 199.910628 179.153869 
L 201.061176 178.6067 
L 202.326779 178.267077 
L 203.937546 177.361962 
L 204.397765 177.35294 
L 205.145621 177.31491 
L 205.375731 177.194396 
L 206.411224 177.122998 
L 206.928971 177.023355 
L 207.734355 177.06558 
L 208.252101 176.967232 
L 211.358581 175.660217 
L 211.473636 175.481654 
L 211.8188 175.207708 
L 213.256985 174.811422 
L 213.544622 174.575236 
L 214.234951 174.285434 
L 215.15539 174.034302 
L 215.443027 173.847299 
L 216.133356 173.638523 
L 216.363465 173.4994 
L 216.70863 173.531669 
L 217.341431 173.148772 
L 217.571541 172.881652 
L 218.376924 172.747077 
L 220.390384 171.263867 
L 221.598459 170.818528 
L 222.058678 170.930365 
L 223.669446 170.436786 
L 224.129665 170.462795 
L 224.302247 170.293262 
L 225.280213 169.995463 
L 225.56785 170.078259 
L 225.740432 169.959949 
L 226.200652 170.003412 
L 226.89098 169.837034 
L 227.523782 169.516422 
L 227.811419 169.44046 
L 228.271638 169.131648 
L 228.616803 168.979438 
L 229.422186 168.571318 
L 229.537241 168.585027 
L 231.205536 167.465802 
L 231.435645 167.277193 
L 231.665755 167.293156 
L 232.528666 166.757835 
L 232.758776 166.52528 
L 234.714707 165.388133 
L 235.692673 164.898013 
L 236.095365 164.485214 
L 237.821187 163.839393 
L 238.684098 163.451989 
L 239.431955 162.984895 
L 239.834646 162.931377 
L 240.409921 162.704812 
L 240.985195 162.125693 
L 242.135743 161.842078 
L 242.653489 161.264663 
L 244.724476 160.234347 
L 246.277716 159.124898 
L 246.737935 158.911148 
L 246.85299 158.671766 
L 247.198154 158.705707 
L 247.658374 158.550965 
L 247.888483 158.58702 
L 248.233648 158.371689 
L 248.521285 158.334159 
L 250.074525 157.628257 
L 250.304634 157.600044 
L 252.375621 156.865732 
L 252.663258 156.746979 
L 253.238532 156.442232 
L 253.583696 156.38152 
L 255.079409 155.689392 
L 256.805231 155.287271 
L 257.26545 155.00087 
L 258.876217 154.342659 
L 261.810115 153.746119 
L 262.15528 153.719561 
L 264.513903 152.941106 
L 264.916595 152.541705 
L 266.699945 151.794733 
L 266.757472 151.745255 
L 267.160164 151.673833 
L 268.253184 151.121379 
L 268.368239 151.166128 
L 269.69137 150.43316 
L 269.921479 150.005587 
L 271.0145 148.96515 
L 271.647301 148.812949 
L 271.762356 148.72667 
L 272.452685 148.776812 
L 273.200541 148.557219 
L 274.581199 148.465107 
L 274.983891 148.429814 
L 277.400042 148.215154 
L 278.493063 147.957418 
L 278.665645 147.996021 
L 279.068337 147.859495 
L 279.758665 147.922649 
L 280.046302 147.809968 
L 280.851686 147.618622 
L 282.807618 147.548577 
L 284.706022 147.167769 
L 285.85657 147.019361 
L 290.113598 144.888609 
L 290.861455 145.017302 
L 291.436729 144.89986 
L 292.242112 144.863748 
L 292.29964 144.881579 
L 292.702332 144.867296 
L 292.702332 144.867296 
" clip-path="url(#p57d9c63611)" style="fill: none; stroke: #f3701b; stroke-width: 3; stroke-linecap: square"/>
   </g>
   <g id="line2d_22">
    <path d="M 292.702332 144.867296 
" clip-path="url(#p57d9c63611)" style="fill: none; stroke: #f3701b; stroke-opacity: 0.8; stroke-width: 3; stroke-linecap: square"/>
    <defs>
     <path id="m86e9e9ecd5" d="M -2.5 5 
L 0 2.5 
L 2.5 5 
L 5 2.5 
L 2.5 0 
L 5 -2.5 
L 2.5 -5 
L 0 -2.5 
L -2.5 -5 
L -5 -2.5 
L -2.5 0 
L -5 2.5 
z
" style="stroke: #000000; stroke-opacity: 0.8; stroke-width: 0.5; stroke-linejoin: miter"/>
    </defs>
    <g clip-path="url(#p57d9c63611)">
     <use xlink:href="#m86e9e9ecd5" x="292.702332" y="144.867296" style="fill: #f3701b; fill-opacity: 0.8; stroke: #000000; stroke-opacity: 0.8; stroke-width: 0.5; stroke-linejoin: miter"/>
    </g>
   </g>
   <g id="line2d_23">
    <path d="M 84.453126 276.531267 
L 87.387024 276.531267 
L 88.422517 276.008191 
L 88.537572 276.021433 
L 89.573065 274.939569 
L 90.493504 274.570888 
L 91.644052 273.70482 
L 92.104271 272.436928 
L 92.161798 272.371215 
L 93.254819 270.026929 
L 93.484929 270.143926 
L 93.657511 269.858413 
L 94.34784 269.482816 
L 94.750531 268.131279 
L 95.095696 267.731572 
L 95.498388 267.670357 
L 95.786025 267.820985 
L 95.90108 267.386278 
L 96.706463 261.374287 
L 96.9941 260.907646 
L 98.54734 259.099185 
L 98.834977 258.9947 
L 99.352724 257.599633 
L 99.87047 257.073845 
L 100.043053 256.513136 
L 100.10058 256.536681 
L 100.560799 256.486068 
L 101.998984 255.449182 
L 102.344149 254.667285 
L 102.459204 254.364353 
L 102.631786 254.44529 
L 102.746841 254.251324 
L 103.322115 254.055337 
L 103.494697 253.818601 
L 103.667279 253.86081 
L 104.069971 253.642314 
L 104.415135 252.04369 
L 104.7603 251.967215 
L 104.817827 251.886721 
L 104.99041 251.243281 
L 105.508156 250.41592 
L 105.910848 250.102879 
L 106.025903 250.135724 
L 106.486122 249.886045 
L 107.981835 247.458518 
L 108.039362 247.03023 
L 108.211944 246.921552 
L 108.902273 246.191844 
L 110.052821 245.516006 
L 111.088314 244.591971 
L 111.318424 244.224983 
L 111.433479 244.07898 
L 111.893698 244.074481 
L 112.06628 244.136453 
L 112.29639 244.072371 
L 112.5265 243.698043 
L 112.814137 243.610357 
L 113.389411 242.783302 
L 113.734575 242.486799 
L 113.964685 242.503373 
L 114.482431 242.371927 
L 114.770068 242.113998 
L 115.287815 241.868978 
L 115.863089 241.113316 
L 116.323308 240.781371 
L 116.553418 240.761238 
L 117.243747 239.529512 
L 117.416329 239.501045 
L 117.761493 238.758842 
L 117.934076 238.632329 
L 118.394295 238.286208 
L 118.451822 238.294022 
L 119.487316 237.549094 
L 119.659898 237.39125 
L 120.177644 237.150869 
L 120.407754 236.742221 
L 120.752918 236.527537 
L 121.328192 235.106297 
L 122.766378 233.644974 
L 123.054015 233.585098 
L 123.456706 233.220917 
L 124.377145 231.635761 
L 124.549727 231.550675 
L 125.987912 229.84505 
L 126.160495 229.898755 
L 126.390604 229.669109 
L 126.505659 229.369003 
L 127.311043 228.124146 
L 127.828789 227.365657 
L 128.461591 226.423999 
L 129.15192 225.240264 
L 129.497084 225.19651 
L 130.417522 224.741974 
L 130.762687 223.976482 
L 131.453016 223.203071 
L 131.683125 223.249853 
L 132.02829 222.844859 
L 132.430982 222.374352 
L 132.603564 222.40774 
L 132.776146 222.250908 
L 132.948728 222.142513 
L 133.178838 221.800268 
L 133.869167 221.349952 
L 134.214331 220.844926 
L 135.019715 220.111872 
L 135.479934 219.06361 
L 135.997681 218.306546 
L 136.745537 217.799664 
L 137.090701 217.192348 
L 138.183722 216.515036 
L 139.219215 216.136949 
L 139.33427 215.997346 
L 140.312236 215.855411 
L 140.599873 215.62479 
L 140.772455 215.259019 
L 140.829983 215.293857 
L 141.347729 214.452916 
L 141.577839 214.392503 
L 141.923003 213.409517 
L 143.016024 212.524028 
L 143.303661 212.372162 
L 143.533771 212.464463 
L 143.878935 212.156638 
L 144.741846 211.74883 
L 145.144538 211.834424 
L 146.352614 211.229988 
L 147.445634 210.644695 
L 147.733271 210.669384 
L 148.078436 210.114213 
L 148.768765 209.868169 
L 149.631676 209.326679 
L 150.322005 208.099026 
L 150.552114 208.120938 
L 151.817717 207.290821 
L 152.392991 207.11098 
L 152.680628 207.216154 
L 153.198375 206.724731 
L 154.003758 206.58455 
L 154.924197 206.152921 
L 155.154307 205.978923 
L 155.672053 206.084466 
L 156.362382 205.646552 
L 156.534964 205.666136 
L 156.707546 205.574097 
L 156.937656 205.62323 
L 158.030677 205.25655 
L 158.893588 204.448464 
L 159.181225 204.349296 
L 160.331773 203.777953 
L 160.734465 203.389811 
L 161.137157 203.371145 
L 161.654903 203.331795 
L 162.230177 203.455415 
L 162.690397 203.190869 
L 164.416219 201.643571 
L 165.27913 201.075096 
L 165.969459 200.707129 
L 166.429678 199.809414 
L 168.38561 198.215146 
L 168.730774 197.672835 
L 169.421103 197.622973 
L 171.664672 196.541343 
L 172.124891 196.358749 
L 172.527583 196.152013 
L 173.678131 196.029213 
L 173.908241 195.814333 
L 174.36846 195.733979 
L 174.828679 195.815988 
L 174.943734 195.642112 
L 176.957193 195.10521 
L 177.417412 194.642418 
L 177.589994 194.665509 
L 177.705049 194.667124 
L 179.200762 193.815649 
L 179.488399 193.781724 
L 180.35131 193.396615 
L 180.811529 192.942213 
L 181.329276 192.605262 
L 181.501858 192.349852 
L 181.90455 192.191234 
L 182.134659 191.920739 
L 182.767461 191.723877 
L 183.918009 191.007667 
L 184.263173 190.955444 
L 184.435756 190.752618 
L 184.78092 190.628744 
L 187.082016 188.893877 
L 187.829873 188.658527 
L 188.059982 188.574519 
L 188.807838 188.36576 
L 189.670749 187.700723 
L 189.728277 187.602964 
L 190.246024 187.411167 
L 190.591188 187.098372 
L 191.626681 186.767608 
L 191.741736 186.691425 
L 192.259483 186.53252 
L 194.272942 185.381312 
L 194.618106 185.040862 
L 195.365963 184.618467 
L 196.228874 183.828417 
L 196.74662 183.661589 
L 196.919202 183.499169 
L 197.436949 183.426763 
L 198.069751 182.971682 
L 198.242333 182.964282 
L 198.414915 182.821914 
L 199.220299 182.468131 
L 199.62299 182.538561 
L 200.485902 182.299983 
L 200.716011 182.270705 
L 201.003648 181.99417 
L 201.118703 182.001307 
L 201.463867 181.907597 
L 201.578922 181.937785 
L 202.441833 181.45322 
L 204.225183 180.862473 
L 205.030567 180.950284 
L 205.663368 180.828491 
L 206.181115 180.870553 
L 206.928971 180.739427 
L 207.274135 180.84161 
L 208.309629 180.765771 
L 209.575232 180.205663 
L 209.920396 180.0281 
L 211.416108 179.478873 
L 211.876328 179.076236 
L 212.451602 178.779158 
L 214.004842 178.034136 
L 214.465061 177.922799 
L 215.903246 177.288229 
L 216.420993 177.008458 
L 217.283904 176.714059 
L 217.916705 176.268754 
L 218.376924 176.14084 
L 218.722089 175.862035 
L 219.412418 175.331509 
L 220.562966 174.87206 
L 220.965658 174.629614 
L 221.425877 174.448215 
L 222.116206 174.522268 
L 222.173733 174.475306 
L 222.46137 174.539492 
L 224.359775 173.891294 
L 226.833453 173.592496 
L 229.019494 172.505335 
L 229.249604 172.468084 
L 230.457679 171.97911 
L 231.723282 171.196599 
L 231.953392 171.083763 
L 233.046413 170.318075 
L 234.254488 169.568333 
L 234.714707 169.351765 
L 235.059872 169.315464 
L 236.958276 168.230081 
L 237.706133 167.937985 
L 238.626571 167.513026 
L 238.971735 167.15531 
L 240.122284 166.811197 
L 241.157777 166.153199 
L 242.020688 165.856645 
L 242.480907 165.512835 
L 242.826072 165.321317 
L 243.804037 164.783997 
L 245.875024 163.560916 
L 245.990079 163.276425 
L 246.450298 163.024391 
L 246.85299 162.714629 
L 248.061065 162.601784 
L 248.636339 162.139066 
L 250.074525 161.722908 
L 250.304634 161.682067 
L 250.764853 161.475684 
L 251.2826 161.340084 
L 251.570237 161.394929 
L 252.030456 161.046104 
L 254.274025 160.28398 
L 255.884792 159.87709 
L 256.460066 159.827333 
L 258.243416 158.606089 
L 261.637533 157.865819 
L 262.040225 157.919484 
L 262.730554 157.584671 
L 263.535937 157.309513 
L 264.226266 156.977675 
L 264.571431 156.866166 
L 265.204232 156.533918 
L 265.491869 156.507065 
L 266.757472 155.882385 
L 267.447801 155.789085 
L 268.023075 155.274701 
L 268.483294 155.198313 
L 269.173623 154.72681 
L 269.46126 154.615883 
L 270.094061 153.953477 
L 271.072027 153.11422 
L 273.143014 152.617847 
L 274.178507 152.587929 
L 274.236035 152.525947 
L 275.041418 152.401877 
L 276.191966 152.389479 
L 276.479603 152.468652 
L 277.169932 152.220331 
L 278.953282 151.92336 
L 279.068337 151.917664 
L 280.218885 151.632845 
L 280.679104 151.530449 
L 281.944707 151.377632 
L 282.635036 151.445146 
L 284.188276 151.129024 
L 285.683988 150.952313 
L 286.431844 150.588336 
L 288.042612 149.813012 
L 288.272721 149.764821 
L 288.502831 149.665759 
L 290.228653 149.143279 
L 290.976509 149.23041 
L 292.127057 149.14001 
L 292.932441 149.222592 
L 292.932441 149.222592 
" clip-path="url(#p57d9c63611)" style="fill: none; stroke: #fda762; stroke-width: 3; stroke-linecap: square"/>
   </g>
   <g id="line2d_24">
    <path d="M 292.932441 149.222592 
" clip-path="url(#p57d9c63611)" style="fill: none; stroke: #fda762; stroke-opacity: 0.8; stroke-width: 3; stroke-linecap: square"/>
    <defs>
     <path id="m93e5bea9a3" d="M -1.666667 5 
L 1.666667 5 
L 1.666667 1.666667 
L 5 1.666667 
L 5 -1.666667 
L 1.666667 -1.666667 
L 1.666667 -5 
L -1.666667 -5 
L -1.666667 -1.666667 
L -5 -1.666667 
L -5 1.666667 
L -1.666667 1.666667 
z
" style="stroke: #000000; stroke-opacity: 0.8; stroke-width: 0.5; stroke-linejoin: miter"/>
    </defs>
    <g clip-path="url(#p57d9c63611)">
     <use xlink:href="#m93e5bea9a3" x="292.932441" y="149.222592" style="fill: #fda762; fill-opacity: 0.8; stroke: #000000; stroke-opacity: 0.8; stroke-width: 0.5; stroke-linejoin: miter"/>
    </g>
   </g>
   <g id="patch_3">
    <path d="M 73.727141 286.920956 
L 73.727141 45.766022 
" style="fill: none; stroke: #000000; stroke-width: 0.8; stroke-linejoin: miter; stroke-linecap: square"/>
   </g>
   <g id="patch_4">
    <path d="M 73.727141 286.920956 
L 335.16 286.920956 
" style="fill: none; stroke: #000000; stroke-width: 0.8; stroke-linejoin: miter; stroke-linecap: square"/>
   </g>
   <g id="text_11">
    <!-- \hspace{1cm}24.2 -->
    <g style="fill: #7f2704" transform="translate(299.970368 74.379804) scale(0.22 -0.22)">
     <defs>
      <path id="CMR17-2e" d="M 1062 261 
C 1062 420 934 522 800 522 
C 672 522 538 420 538 261 
C 538 102 666 0 800 0 
C 928 0 1062 102 1062 261 
z
" transform="scale(0.015625)"/>
     </defs>
     <use xlink:href="#CMR17-32" transform="scale(0.996264)"/>
     <use xlink:href="#CMR17-34" transform="translate(45.690477 0) scale(0.996264)"/>
     <use xlink:href="#CMR17-2e" transform="translate(91.380954 0) scale(0.996264)"/>
     <use xlink:href="#CMR17-32" transform="translate(116.252013 0) scale(0.996264)"/>
    </g>
   </g>
   <g id="text_12">
    <!-- \hspace{1cm}16.3 -->
    <g style="fill: #c54102" transform="translate(299.970368 129.125889) scale(0.22 -0.22)">
     <defs>
      <path id="CMR17-33" d="M 1414 2157 
C 1984 2157 2234 1662 2234 1090 
C 2234 320 1824 25 1453 25 
C 1114 25 563 194 390 693 
C 422 680 454 680 486 680 
C 640 680 755 782 755 948 
C 755 1133 614 1216 486 1216 
C 378 1216 211 1165 211 926 
C 211 335 787 -128 1466 -128 
C 2176 -128 2720 430 2720 1085 
C 2720 1707 2208 2157 1600 2227 
C 2086 2328 2554 2756 2554 3329 
C 2554 3820 2048 4179 1472 4179 
C 890 4179 378 3829 378 3329 
C 378 3110 544 3072 627 3072 
C 762 3072 877 3155 877 3321 
C 877 3486 762 3569 627 3569 
C 602 3569 570 3569 544 3557 
C 730 3959 1235 4032 1459 4032 
C 1683 4032 2106 3925 2106 3320 
C 2106 3143 2080 2828 1862 2550 
C 1670 2304 1453 2304 1242 2284 
C 1210 2284 1062 2269 1037 2269 
C 992 2263 966 2257 966 2208 
C 966 2163 973 2157 1101 2157 
L 1414 2157 
z
" transform="scale(0.015625)"/>
     </defs>
     <use xlink:href="#CMR17-31" transform="scale(0.996264)"/>
     <use xlink:href="#CMR17-36" transform="translate(45.690477 0) scale(0.996264)"/>
     <use xlink:href="#CMR17-2e" transform="translate(91.380954 0) scale(0.996264)"/>
     <use xlink:href="#CMR17-33" transform="translate(116.252013 0) scale(0.996264)"/>
    </g>
   </g>
   <g id="text_13">
    <!-- \hspace{1cm}15.3 -->
    <g style="fill: #f3701b" transform="translate(299.970368 149.250022) scale(0.22 -0.22)">
     <defs>
      <path id="CMR17-35" d="M 730 3692 
C 794 3666 1056 3584 1325 3584 
C 1920 3584 2246 3911 2432 4100 
C 2432 4157 2432 4192 2394 4192 
C 2387 4192 2374 4192 2323 4163 
C 2099 4058 1837 3973 1517 3973 
C 1325 3973 1037 3999 723 4139 
C 653 4171 640 4171 634 4171 
C 602 4171 595 4164 595 4037 
L 595 2203 
C 595 2089 595 2057 659 2057 
C 691 2057 704 2070 736 2114 
C 941 2401 1222 2522 1542 2522 
C 1766 2522 2246 2382 2246 1289 
C 2246 1085 2246 715 2054 421 
C 1894 159 1645 25 1370 25 
C 947 25 518 320 403 814 
C 429 807 480 795 506 795 
C 589 795 749 840 749 1038 
C 749 1210 627 1280 506 1280 
C 358 1280 262 1190 262 1011 
C 262 454 704 -128 1382 -128 
C 2042 -128 2669 440 2669 1264 
C 2669 2030 2170 2624 1549 2624 
C 1222 2624 947 2503 730 2274 
L 730 3692 
z
" transform="scale(0.015625)"/>
     </defs>
     <use xlink:href="#CMR17-31" transform="scale(0.996264)"/>
     <use xlink:href="#CMR17-35" transform="translate(45.690477 0) scale(0.996264)"/>
     <use xlink:href="#CMR17-2e" transform="translate(91.380954 0) scale(0.996264)"/>
     <use xlink:href="#CMR17-33" transform="translate(116.252013 0) scale(0.996264)"/>
    </g>
   </g>
   <g id="text_14">
    <!-- \hspace{1cm}14.8 -->
    <g style="fill: #fda762" transform="translate(299.970368 168.532833) scale(0.22 -0.22)">
     <use xlink:href="#CMR17-31" transform="scale(0.996264)"/>
     <use xlink:href="#CMR17-34" transform="translate(45.690477 0) scale(0.996264)"/>
     <use xlink:href="#CMR17-2e" transform="translate(91.380954 0) scale(0.996264)"/>
     <use xlink:href="#CMR17-38" transform="translate(116.252013 0) scale(0.996264)"/>
    </g>
   </g>
   <g id="text_15">
    <!-- Continual Google Landmarks (CGLM) -->
    <g transform="translate(48.808475 39.766022) scale(0.2 -0.2)">
     <defs>
      <path id="CMR17-43" d="M 3974 4289 
C 3974 4403 3968 4410 3930 4410 
C 3904 4410 3898 4403 3853 4327 
L 3571 3792 
C 3258 4187 2874 4416 2381 4416 
C 1286 4416 294 3456 294 2148 
C 294 826 1286 -128 2387 -128 
C 3366 -128 3974 730 3974 1461 
C 3974 1524 3974 1550 3917 1550 
C 3866 1550 3866 1531 3859 1474 
C 3808 585 3168 38 2477 38 
C 1824 38 781 495 781 2147 
C 781 3805 1843 4250 2464 4250 
C 3187 4250 3712 3628 3834 2745 
C 3846 2668 3846 2655 3904 2655 
C 3974 2655 3974 2668 3974 2783 
L 3974 4289 
z
" transform="scale(0.015625)"/>
      <path id="CMR17-6f" d="M 2758 1356 
C 2758 2176 2163 2816 1466 2816 
C 768 2816 173 2176 173 1356 
C 173 551 768 -64 1466 -64 
C 2163 -64 2758 551 2758 1356 
z
M 1466 51 
C 1165 51 909 230 762 480 
C 602 767 582 1126 582 1408 
C 582 1677 595 2010 762 2298 
C 890 2509 1139 2714 1466 2714 
C 1754 2714 1997 2554 2150 2330 
C 2349 2029 2349 1607 2349 1408 
C 2349 1158 2336 775 2163 467 
C 1984 173 1709 51 1466 51 
z
" transform="scale(0.015625)"/>
      <path id="CMR17-47" d="M 3974 1233 
C 3974 1473 3994 1505 4390 1505 
L 4390 1670 
C 4237 1664 3891 1664 3718 1664 
C 3539 1664 3040 1664 2797 1664 
L 2797 1505 
L 2989 1505 
C 3539 1505 3552 1434 3552 1201 
L 3552 774 
C 3552 63 2720 63 2522 63 
C 1862 63 781 511 781 2160 
C 781 3808 1843 4250 2464 4250 
C 3187 4250 3712 3626 3834 2741 
C 3846 2664 3846 2651 3904 2651 
C 3974 2651 3974 2664 3974 2779 
L 3974 4288 
C 3974 4402 3968 4409 3930 4409 
C 3904 4409 3898 4402 3853 4326 
L 3571 3791 
C 3258 4187 2874 4416 2381 4416 
C 1286 4416 294 3456 294 2148 
C 294 845 1267 -128 2394 -128 
C 2912 -128 3418 56 3616 417 
C 3725 158 3904 -20 3936 -20 
C 3968 -20 3974 -13 3974 100 
L 3974 1233 
z
" transform="scale(0.015625)"/>
      <path id="CMR17-67" d="M 710 1164 
C 832 1068 1043 960 1299 960 
C 1805 960 2240 1357 2240 1888 
C 2240 2054 2189 2310 1997 2509 
C 2176 2692 2438 2752 2586 2752 
C 2611 2752 2650 2752 2682 2734 
C 2656 2728 2598 2703 2598 2605 
C 2598 2527 2656 2471 2739 2471 
C 2835 2471 2886 2533 2886 2614 
C 2886 2731 2790 2854 2586 2854 
C 2330 2854 2106 2738 1926 2580 
C 1734 2753 1504 2816 1299 2816 
C 794 2816 358 2419 358 1888 
C 358 1522 570 1292 634 1228 
C 442 1004 442 743 442 711 
C 442 545 506 302 723 168 
C 390 85 128 -169 128 -486 
C 128 -943 736 -1280 1466 -1280 
C 2170 -1280 2803 -956 2803 -479 
C 2803 384 1856 384 1363 384 
C 1216 384 954 384 922 391 
C 723 423 589 602 589 826 
C 589 883 589 1024 710 1164 
z
M 1299 1068 
C 736 1068 736 1760 736 1889 
C 736 2016 736 2708 1299 2708 
C 1862 2708 1862 2016 1862 1889 
C 1862 1760 1862 1068 1299 1068 
z
M 1466 -1171 
C 826 -1171 384 -835 384 -486 
C 384 -289 493 -105 634 -4 
C 794 104 858 104 1293 104 
C 1818 104 2547 104 2547 -486 
C 2547 -835 2106 -1171 1466 -1171 
z
" transform="scale(0.015625)"/>
      <path id="CMR17-4c" d="M 3469 1615 
L 3354 1615 
C 3302 983 3219 166 2125 166 
L 1530 166 
C 1274 166 1261 197 1261 414 
L 1261 3898 
C 1261 4129 1274 4192 1760 4192 
L 1901 4192 
L 1901 4352 
C 1638 4352 1331 4352 1069 4352 
C 870 4352 512 4352 326 4352 
L 326 4192 
C 768 4192 838 4192 838 3905 
L 838 452 
C 838 166 768 166 326 166 
L 326 0 
L 3315 0 
L 3469 1615 
z
" transform="scale(0.015625)"/>
      <path id="CMR17-64" d="M 1869 4326 
L 1869 4160 
C 2246 4160 2304 4122 2304 3820 
L 2304 2345 
C 2278 2377 2016 2790 1498 2790 
C 845 2790 211 2208 211 1364 
C 211 525 806 -64 1434 -64 
C 1978 -64 2259 337 2291 380 
L 2291 -63 
L 3066 -63 
L 3066 128 
C 2688 128 2630 166 2630 473 
L 2630 4396 
L 1869 4326 
z
M 2291 755 
C 2291 563 2176 390 2029 262 
C 1811 70 1594 38 1472 38 
C 1286 38 621 134 621 1356 
C 621 2612 1363 2688 1530 2688 
C 1824 2688 2061 2522 2208 2291 
C 2291 2157 2291 2138 2291 2023 
L 2291 755 
z
" transform="scale(0.015625)"/>
      <path id="CMR17-28" d="M 1958 -1561 
C 1958 -1555 1958 -1542 1939 -1523 
C 1645 -1224 858 -407 858 1581 
C 858 3569 1632 4379 1946 4697 
C 1946 4704 1958 4717 1958 4736 
C 1958 4755 1939 4768 1914 4768 
C 1843 4768 1299 4296 986 3594 
C 666 2887 576 2199 576 1588 
C 576 1128 621 351 1005 -471 
C 1312 -1135 1837 -1600 1914 -1600 
C 1946 -1600 1958 -1587 1958 -1561 
z
" transform="scale(0.015625)"/>
      <path id="CMR17-4d" d="M 1338 4224 
C 1299 4320 1293 4320 1158 4320 
L 339 4320 
L 339 4160 
C 781 4160 851 4160 851 3875 
L 851 610 
C 851 451 851 153 339 153 
L 339 -13 
C 486 0 755 0 915 0 
C 1075 0 1344 0 1491 -13 
L 1491 153 
C 979 153 979 451 979 610 
L 979 4135 
L 986 4135 
L 2490 89 
C 2515 25 2528 -13 2579 -13 
C 2630 -13 2643 25 2669 89 
L 4186 4166 
L 4192 4166 
L 4192 438 
C 4192 153 4122 153 3680 153 
L 3680 -13 
C 3853 0 4198 0 4384 0 
C 4570 0 4922 0 5094 -13 
L 5094 153 
C 4653 153 4582 153 4582 438 
L 4582 3875 
C 4582 4160 4653 4160 5094 4160 
L 5094 4320 
L 4282 4320 
C 4147 4320 4141 4314 4102 4218 
L 2720 502 
L 1338 4224 
z
" transform="scale(0.015625)"/>
      <path id="CMR17-29" d="M 1683 1581 
C 1683 2040 1638 2817 1254 3639 
C 947 4303 422 4768 346 4768 
C 326 4768 301 4761 301 4729 
C 301 4717 307 4710 314 4697 
C 621 4378 1402 3568 1402 1584 
C 1402 -407 627 -1217 314 -1537 
C 307 -1549 301 -1556 301 -1568 
C 301 -1600 326 -1600 346 -1600 
C 416 -1600 960 -1128 1274 -426 
C 1594 281 1683 969 1683 1581 
z
" transform="scale(0.015625)"/>
     </defs>
     <use xlink:href="#CMR17-43" transform="scale(0.996264)"/>
     <use xlink:href="#CMR17-6f" transform="translate(66.509881 0) scale(0.996264)"/>
     <use xlink:href="#CMR17-6e" transform="translate(112.200358 0) scale(0.996264)"/>
     <use xlink:href="#CMR17-74" transform="translate(160.493274 0) scale(0.996264)"/>
     <use xlink:href="#CMR17-69" transform="translate(195.774041 0) scale(0.996264)"/>
     <use xlink:href="#CMR17-6e" transform="translate(220.6451 0) scale(0.996264)"/>
     <use xlink:href="#CMR17-75" transform="translate(268.938016 0) scale(0.996264)"/>
     <use xlink:href="#CMR17-61" transform="translate(319.833385 0) scale(0.996264)"/>
     <use xlink:href="#CMR17-6c" transform="translate(365.523863 0) scale(0.996264)"/>
     <use xlink:href="#CMR17-47" transform="translate(420.470887 0) scale(0.996264)"/>
     <use xlink:href="#CMR17-6f" transform="translate(492.826233 0) scale(0.996264)"/>
     <use xlink:href="#CMR17-6f" transform="translate(541.119149 0) scale(0.996264)"/>
     <use xlink:href="#CMR17-67" transform="translate(586.809626 0) scale(0.996264)"/>
     <use xlink:href="#CMR17-6c" transform="translate(632.500103 0) scale(0.996264)"/>
     <use xlink:href="#CMR17-65" transform="translate(657.371162 0) scale(0.996264)"/>
     <use xlink:href="#CMR17-4c" transform="translate(727.932789 0) scale(0.996264)"/>
     <use xlink:href="#CMR17-61" transform="translate(785.314197 0) scale(0.996264)"/>
     <use xlink:href="#CMR17-6e" transform="translate(831.004674 0) scale(0.996264)"/>
     <use xlink:href="#CMR17-64" transform="translate(881.900043 0) scale(0.996264)"/>
     <use xlink:href="#CMR17-6d" transform="translate(932.795413 0) scale(0.996264)"/>
     <use xlink:href="#CMR17-61" transform="translate(1009.715003 0) scale(0.996264)"/>
     <use xlink:href="#CMR17-72" transform="translate(1055.40548 0) scale(0.996264)"/>
     <use xlink:href="#CMR17-6b" transform="translate(1090.686248 0) scale(0.996264)"/>
     <use xlink:href="#CMR17-73" transform="translate(1138.979164 0) scale(0.996264)"/>
     <use xlink:href="#CMR17-28" transform="translate(1204.856468 0) scale(0.996264)"/>
     <use xlink:href="#CMR17-43" transform="translate(1240.137236 0) scale(0.996264)"/>
     <use xlink:href="#CMR17-47" transform="translate(1306.647116 0) scale(0.996264)"/>
     <use xlink:href="#CMR17-4c" transform="translate(1379.002462 0) scale(0.996264)"/>
     <use xlink:href="#CMR17-4d" transform="translate(1436.38387 0) scale(0.996264)"/>
     <use xlink:href="#CMR17-29" transform="translate(1521.070811 0) scale(0.996264)"/>
    </g>
   </g>
   <g id="legend_1">
    <g id="patch_5">
     <path d="M 218.254454 277.920956 
L 322.56 277.920956 
Q 326.16 277.920956 326.16 274.320956 
L 326.16 175.7687 
Q 326.16 172.1687 322.56 172.1687 
L 218.254454 172.1687 
Q 214.654454 172.1687 214.654454 175.7687 
L 214.654454 274.320956 
Q 214.654454 277.920956 218.254454 277.920956 
z
" style="fill: #ffffff; opacity: 0.5; stroke: #cccccc; stroke-linejoin: miter"/>
    </g>
    <g id="line2d_25">
     <path d="M 221.854454 185.6687 
L 239.854454 185.6687 
L 257.854454 185.6687 
" style="fill: none; stroke: #7f2704; stroke-opacity: 0.8; stroke-width: 3; stroke-linecap: square"/>
     <g>
      <use xlink:href="#m66922ced99" x="239.854454" y="185.6687" style="fill: #7f2704; fill-opacity: 0.8; stroke: #000000; stroke-opacity: 0.8; stroke-width: 0.5; stroke-linejoin: bevel"/>
     </g>
    </g>
    <g id="text_16">
     <!-- $d$=0 -->
     <g transform="translate(272.254454 191.9687) scale(0.18 -0.18)">
      <defs>
       <path id="CMMI12-64" d="M 3219 4257 
C 3226 4282 3238 4320 3238 4352 
C 3238 4416 3174 4416 3162 4416 
C 3155 4416 2842 4388 2810 4380 
C 2701 4373 2605 4358 2490 4358 
C 2330 4345 2285 4339 2285 4224 
C 2285 4160 2336 4160 2426 4160 
C 2739 4160 2746 4103 2746 4040 
C 2746 4002 2733 3952 2726 3933 
L 2336 2395 
C 2266 2561 2093 2816 1760 2816 
C 1037 2816 256 1884 256 939 
C 256 307 627 -64 1062 -64 
C 1414 -64 1715 211 1894 422 
C 1958 45 2259 -64 2451 -64 
C 2643 -64 2797 51 2912 281 
C 3014 498 3104 888 3104 913 
C 3104 945 3078 971 3040 971 
C 2982 971 2976 939 2950 843 
C 2854 466 2733 64 2470 64 
C 2285 64 2272 229 2272 357 
C 2272 382 2272 515 2317 694 
L 3219 4257 
z
M 1926 760 
C 1894 651 1894 639 1805 517 
C 1664 338 1382 64 1082 64 
C 819 64 672 300 672 677 
C 672 1028 870 1743 992 2012 
C 1210 2459 1510 2689 1760 2689 
C 2182 2689 2266 2165 2266 2114 
C 2266 2108 2246 2024 2240 2012 
L 1926 760 
z
" transform="scale(0.015625)"/>
       <path id="CMR17-3d" d="M 4115 2017 
C 4211 2017 4307 2017 4307 2125 
C 4307 2240 4198 2240 4090 2240 
L 512 2240 
C 403 2240 294 2240 294 2125 
C 294 2017 390 2017 486 2017 
L 4115 2017 
z
M 4090 896 
C 4198 896 4307 896 4307 1011 
C 4307 1119 4211 1119 4115 1119 
L 486 1119 
C 390 1119 294 1119 294 1011 
C 294 896 403 896 512 896 
L 4090 896 
z
" transform="scale(0.015625)"/>
      </defs>
      <use xlink:href="#CMMI12-64" transform="scale(0.996264)"/>
      <use xlink:href="#CMR17-3d" transform="translate(50.689097 0) scale(0.996264)"/>
      <use xlink:href="#CMR17-30" transform="translate(122.403885 0) scale(0.996264)"/>
     </g>
    </g>
    <g id="line2d_26">
     <path d="M 221.854454 210.756764 
L 239.854454 210.756764 
L 257.854454 210.756764 
" style="fill: none; stroke: #c54102; stroke-opacity: 0.8; stroke-width: 3; stroke-linecap: square"/>
     <g>
      <use xlink:href="#m8108015110" x="239.854454" y="210.756764" style="fill: #c54102; fill-opacity: 0.8; stroke: #000000; stroke-opacity: 0.8; stroke-width: 0.5; stroke-linejoin: miter"/>
     </g>
    </g>
    <g id="text_17">
     <!-- $d$=10 -->
     <g transform="translate(272.254454 217.056764) scale(0.18 -0.18)">
      <use xlink:href="#CMMI12-64" transform="scale(0.996264)"/>
      <use xlink:href="#CMR17-3d" transform="translate(50.689097 0) scale(0.996264)"/>
      <use xlink:href="#CMR17-31" transform="translate(122.403885 0) scale(0.996264)"/>
      <use xlink:href="#CMR17-30" transform="translate(168.094362 0) scale(0.996264)"/>
     </g>
    </g>
    <g id="line2d_27">
     <path d="M 221.854454 235.844828 
L 239.854454 235.844828 
L 257.854454 235.844828 
" style="fill: none; stroke: #f3701b; stroke-opacity: 0.8; stroke-width: 3; stroke-linecap: square"/>
     <g>
      <use xlink:href="#m86e9e9ecd5" x="239.854454" y="235.844828" style="fill: #f3701b; fill-opacity: 0.8; stroke: #000000; stroke-opacity: 0.8; stroke-width: 0.5; stroke-linejoin: miter"/>
     </g>
    </g>
    <g id="text_18">
     <!-- $d$=50 -->
     <g transform="translate(272.254454 242.144828) scale(0.18 -0.18)">
      <use xlink:href="#CMMI12-64" transform="scale(0.996264)"/>
      <use xlink:href="#CMR17-3d" transform="translate(50.689097 0) scale(0.996264)"/>
      <use xlink:href="#CMR17-35" transform="translate(122.403885 0) scale(0.996264)"/>
      <use xlink:href="#CMR17-30" transform="translate(168.094362 0) scale(0.996264)"/>
     </g>
    </g>
    <g id="line2d_28">
     <path d="M 221.854454 260.932892 
L 239.854454 260.932892 
L 257.854454 260.932892 
" style="fill: none; stroke: #fda762; stroke-opacity: 0.8; stroke-width: 3; stroke-linecap: square"/>
     <g>
      <use xlink:href="#m93e5bea9a3" x="239.854454" y="260.932892" style="fill: #fda762; fill-opacity: 0.8; stroke: #000000; stroke-opacity: 0.8; stroke-width: 0.5; stroke-linejoin: miter"/>
     </g>
    </g>
    <g id="text_19">
     <!-- $d$=100 -->
     <g transform="translate(272.254454 267.232892) scale(0.18 -0.18)">
      <use xlink:href="#CMMI12-64" transform="scale(0.996264)"/>
      <use xlink:href="#CMR17-3d" transform="translate(50.689097 0) scale(0.996264)"/>
      <use xlink:href="#CMR17-31" transform="translate(122.403885 0) scale(0.996264)"/>
      <use xlink:href="#CMR17-30" transform="translate(168.094362 0) scale(0.996264)"/>
      <use xlink:href="#CMR17-30" transform="translate(213.784839 0) scale(0.996264)"/>
     </g>
    </g>
   </g>
  </g>
 </g>
 <defs>
  <clipPath id="p57d9c63611">
   <rect x="73.727141" y="45.766022" width="261.432859" height="241.154934"/>
  </clipPath>
 </defs>
</svg>
