<?xml version="1.0" encoding="utf-8" standalone="no"?>
<!DOCTYPE svg PUBLIC "-//W3C//DTD SVG 1.1//EN"
  "http://www.w3.org/Graphics/SVG/1.1/DTD/svg11.dtd">
<svg xmlns:xlink="http://www.w3.org/1999/xlink" width="360pt" height="360pt" viewBox="0 0 360 360" xmlns="http://www.w3.org/2000/svg" version="1.1">
 <metadata>
  <rdf:RDF xmlns:dc="http://purl.org/dc/elements/1.1/" xmlns:cc="http://creativecommons.org/ns#" xmlns:rdf="http://www.w3.org/1999/02/22-rdf-syntax-ns#">
   <cc:Work>
    <dc:type rdf:resource="http://purl.org/dc/dcmitype/StillImage"/>
    <dc:date>2023-10-31T09:18:48.019656</dc:date>
    <dc:format>image/svg+xml</dc:format>
    <dc:creator>
     <cc:Agent>
      <dc:title>Matplotlib v3.7.1, https://matplotlib.org/</dc:title>
     </cc:Agent>
    </dc:creator>
   </cc:Work>
  </rdf:RDF>
 </metadata>
 <defs>
  <style type="text/css">*{stroke-linejoin: round; stroke-linecap: butt}</style>
 </defs>
 <g id="figure_1">
  <g id="patch_1">
   <path d="M 0 360 
L 360 360 
L 360 0 
L 0 0 
z
" style="fill: #ffffff"/>
  </g>
  <g id="axes_1">
   <g id="patch_2">
    <path d="M 73.727141 286.920956 
L 335.16 286.920956 
L 335.16 45.766022 
L 73.727141 45.766022 
z
" style="fill: #ffffff"/>
   </g>
   <g id="matplotlib.axis_1">
    <g id="xtick_1">
     <g id="line2d_1">
      <path d="M 84.145095 286.920956 
L 84.145095 45.766022 
" clip-path="url(#pb3d993e05d)" style="fill: none; stroke-dasharray: 2.96,1.28; stroke-dashoffset: 0; stroke: #b0b0b0; stroke-opacity: 0.3; stroke-width: 0.8"/>
     </g>
     <g id="line2d_2">
      <defs>
       <path id="m024d2db09c" d="M 0 0 
L 0 -3 
" style="stroke: #000000; stroke-width: 0.5"/>
      </defs>
      <g>
       <use xlink:href="#m024d2db09c" x="84.145095" y="286.920956" style="stroke: #000000; stroke-width: 0.5"/>
      </g>
     </g>
     <g id="text_1">
      <!-- 0 -->
      <g transform="translate(78.89069 306.333498) scale(0.23 -0.23)">
       <defs>
        <path id="CMR17-30" d="M 2688 2025 
C 2688 2416 2682 3080 2413 3591 
C 2176 4039 1798 4198 1466 4198 
C 1158 4198 768 4058 525 3597 
C 269 3118 243 2524 243 2025 
C 243 1661 250 1106 448 619 
C 723 -39 1216 -128 1466 -128 
C 1760 -128 2208 -7 2470 600 
C 2662 1042 2688 1559 2688 2025 
z
M 1466 -26 
C 1056 -26 813 325 723 812 
C 653 1188 653 1738 653 2096 
C 653 2588 653 2997 736 3387 
C 858 3929 1216 4096 1466 4096 
C 1728 4096 2067 3923 2189 3400 
C 2272 3036 2278 2607 2278 2096 
C 2278 1680 2278 1169 2202 792 
C 2067 95 1690 -26 1466 -26 
z
" transform="scale(0.015625)"/>
       </defs>
       <use xlink:href="#CMR17-30" transform="scale(0.996264)"/>
      </g>
     </g>
    </g>
    <g id="xtick_2">
     <g id="line2d_3">
      <path d="M 154.468964 286.920956 
L 154.468964 45.766022 
" clip-path="url(#pb3d993e05d)" style="fill: none; stroke-dasharray: 2.96,1.28; stroke-dashoffset: 0; stroke: #b0b0b0; stroke-opacity: 0.3; stroke-width: 0.8"/>
     </g>
     <g id="line2d_4">
      <g>
       <use xlink:href="#m024d2db09c" x="154.468964" y="286.920956" style="stroke: #000000; stroke-width: 0.5"/>
      </g>
     </g>
     <g id="text_2">
      <!-- 100k -->
      <g transform="translate(133.152067 306.333498) scale(0.23 -0.23)">
       <defs>
        <path id="CMR17-31" d="M 1702 4058 
C 1702 4192 1696 4192 1606 4192 
C 1357 3916 979 3827 621 3827 
C 602 3827 570 3827 563 3808 
C 557 3795 557 3782 557 3648 
C 755 3648 1088 3686 1344 3839 
L 1344 461 
C 1344 236 1331 160 781 160 
L 589 160 
L 589 0 
C 896 0 1216 0 1523 0 
C 1830 0 2150 0 2458 0 
L 2458 160 
L 2266 160 
C 1715 160 1702 230 1702 458 
L 1702 4058 
z
" transform="scale(0.015625)"/>
        <path id="CMR17-6b" d="M 1670 1673 
C 1664 1686 1632 1724 1632 1743 
C 1632 1756 2086 2171 2144 2222 
C 2509 2528 2739 2560 2906 2560 
L 2906 2733 
C 2867 2733 2854 2733 2848 2720 
L 2534 2720 
C 2355 2720 2080 2720 1907 2733 
L 1907 2566 
C 1997 2559 2061 2508 2061 2419 
C 2061 2291 1933 2170 1926 2170 
L 960 1289 
L 960 4396 
L 198 4326 
L 198 4160 
C 576 4160 634 4122 634 3817 
L 634 426 
C 634 184 608 153 198 153 
L 198 -13 
C 352 0 634 0 794 0 
C 954 0 1235 0 1389 -13 
L 1389 153 
C 979 153 954 178 954 428 
L 954 1130 
L 1395 1532 
L 2042 574 
C 2118 459 2182 369 2182 286 
C 2182 172 2067 153 1990 153 
L 1990 -13 
C 2144 0 2419 0 2579 0 
C 2694 0 2931 0 3040 0 
L 3040 153 
C 2739 153 2669 210 2477 491 
L 1670 1673 
z
" transform="scale(0.015625)"/>
       </defs>
       <use xlink:href="#CMR17-31" transform="scale(0.996264)"/>
       <use xlink:href="#CMR17-30" transform="translate(45.690477 0) scale(0.996264)"/>
       <use xlink:href="#CMR17-30" transform="translate(91.380954 0) scale(0.996264)"/>
       <use xlink:href="#CMR17-6b" transform="translate(137.071431 0) scale(0.996264)"/>
      </g>
     </g>
    </g>
    <g id="xtick_3">
     <g id="line2d_5">
      <path d="M 224.792832 286.920956 
L 224.792832 45.766022 
" clip-path="url(#pb3d993e05d)" style="fill: none; stroke-dasharray: 2.96,1.28; stroke-dashoffset: 0; stroke: #b0b0b0; stroke-opacity: 0.3; stroke-width: 0.8"/>
     </g>
     <g id="line2d_6">
      <g>
       <use xlink:href="#m024d2db09c" x="224.792832" y="286.920956" style="stroke: #000000; stroke-width: 0.5"/>
      </g>
     </g>
     <g id="text_3">
      <!-- 200k -->
      <g transform="translate(203.475935 306.333498) scale(0.23 -0.23)">
       <defs>
        <path id="CMR17-32" d="M 2669 989 
L 2554 989 
C 2490 536 2438 459 2413 420 
C 2381 369 1920 369 1830 369 
L 602 369 
C 832 619 1280 1072 1824 1597 
C 2214 1967 2669 2402 2669 3035 
C 2669 3790 2067 4224 1395 4224 
C 691 4224 262 3604 262 3030 
C 262 2780 448 2748 525 2748 
C 589 2748 781 2787 781 3010 
C 781 3207 614 3264 525 3264 
C 486 3264 448 3258 422 3245 
C 544 3790 915 4058 1306 4058 
C 1862 4058 2227 3617 2227 3035 
C 2227 2479 1901 2000 1536 1584 
L 262 146 
L 262 0 
L 2515 0 
L 2669 989 
z
" transform="scale(0.015625)"/>
       </defs>
       <use xlink:href="#CMR17-32" transform="scale(0.996264)"/>
       <use xlink:href="#CMR17-30" transform="translate(45.690477 0) scale(0.996264)"/>
       <use xlink:href="#CMR17-30" transform="translate(91.380954 0) scale(0.996264)"/>
       <use xlink:href="#CMR17-6b" transform="translate(137.071431 0) scale(0.996264)"/>
      </g>
     </g>
    </g>
    <g id="xtick_4">
     <g id="line2d_7">
      <path d="M 295.116701 286.920956 
L 295.116701 45.766022 
" clip-path="url(#pb3d993e05d)" style="fill: none; stroke-dasharray: 2.96,1.28; stroke-dashoffset: 0; stroke: #b0b0b0; stroke-opacity: 0.3; stroke-width: 0.8"/>
     </g>
     <g id="line2d_8">
      <g>
       <use xlink:href="#m024d2db09c" x="295.116701" y="286.920956" style="stroke: #000000; stroke-width: 0.5"/>
      </g>
     </g>
     <g id="text_4">
      <!-- 300k -->
      <g transform="translate(273.799804 306.333498) scale(0.23 -0.23)">
       <defs>
        <path id="CMR17-33" d="M 1414 2157 
C 1984 2157 2234 1662 2234 1090 
C 2234 320 1824 25 1453 25 
C 1114 25 563 194 390 693 
C 422 680 454 680 486 680 
C 640 680 755 782 755 948 
C 755 1133 614 1216 486 1216 
C 378 1216 211 1165 211 926 
C 211 335 787 -128 1466 -128 
C 2176 -128 2720 430 2720 1085 
C 2720 1707 2208 2157 1600 2227 
C 2086 2328 2554 2756 2554 3329 
C 2554 3820 2048 4179 1472 4179 
C 890 4179 378 3829 378 3329 
C 378 3110 544 3072 627 3072 
C 762 3072 877 3155 877 3321 
C 877 3486 762 3569 627 3569 
C 602 3569 570 3569 544 3557 
C 730 3959 1235 4032 1459 4032 
C 1683 4032 2106 3925 2106 3320 
C 2106 3143 2080 2828 1862 2550 
C 1670 2304 1453 2304 1242 2284 
C 1210 2284 1062 2269 1037 2269 
C 992 2263 966 2257 966 2208 
C 966 2163 973 2157 1101 2157 
L 1414 2157 
z
" transform="scale(0.015625)"/>
       </defs>
       <use xlink:href="#CMR17-33" transform="scale(0.996264)"/>
       <use xlink:href="#CMR17-30" transform="translate(45.690477 0) scale(0.996264)"/>
       <use xlink:href="#CMR17-30" transform="translate(91.380954 0) scale(0.996264)"/>
       <use xlink:href="#CMR17-6b" transform="translate(137.071431 0) scale(0.996264)"/>
      </g>
     </g>
    </g>
    <g id="text_5">
     <!-- Time step -->
     <g transform="translate(158.29118 330.70302) scale(0.23 -0.23)">
      <defs>
       <path id="CMR17-54" d="M 3981 4326 
L 288 4326 
L 179 2918 
L 294 2918 
C 378 3976 467 4160 1453 4160 
C 1568 4160 1754 4160 1805 4154 
C 1926 4135 1926 4058 1926 3912 
L 1926 459 
C 1926 230 1907 160 1376 160 
L 1197 160 
L 1197 0 
C 1504 0 1824 0 2138 0 
C 2451 0 2771 0 3078 0 
L 3078 160 
L 2899 160 
C 2368 160 2349 230 2349 459 
L 2349 3912 
C 2349 4052 2349 4129 2464 4154 
C 2515 4160 2701 4160 2816 4160 
C 3795 4160 3891 3976 3974 2918 
L 4090 2918 
L 3981 4326 
z
" transform="scale(0.015625)"/>
       <path id="CMR17-69" d="M 992 3909 
C 992 4049 877 4170 730 4170 
C 589 4170 467 4056 467 3909 
C 467 3769 582 3648 730 3648 
C 870 3648 992 3763 992 3909 
z
M 243 2706 
L 243 2541 
C 602 2541 653 2502 653 2197 
L 653 427 
C 653 184 627 153 218 153 
L 218 -13 
C 371 0 646 0 806 0 
C 960 0 1222 0 1370 -13 
L 1370 153 
C 992 153 979 191 979 420 
L 979 2776 
L 243 2706 
z
" transform="scale(0.015625)"/>
       <path id="CMR17-6d" d="M 4326 1933 
C 4326 2252 4269 2790 3507 2790 
C 3072 2790 2771 2496 2656 2151 
L 2650 2151 
C 2573 2676 2195 2790 1837 2790 
C 1331 2790 1069 2400 973 2144 
L 966 2144 
L 966 2790 
L 211 2720 
L 211 2554 
C 589 2554 646 2515 646 2208 
L 646 428 
C 646 184 621 153 211 153 
L 211 -13 
C 365 0 646 0 813 0 
C 979 0 1267 0 1421 -13 
L 1421 153 
C 1011 153 986 178 986 428 
L 986 1658 
C 986 2247 1344 2688 1792 2688 
C 2266 2688 2317 2266 2317 1958 
L 2317 428 
C 2317 184 2291 153 1882 153 
L 1882 -13 
C 2035 0 2317 0 2483 0 
C 2650 0 2938 0 3091 -13 
L 3091 153 
C 2682 153 2656 178 2656 428 
L 2656 1658 
C 2656 2247 3014 2688 3462 2688 
C 3936 2688 3987 2266 3987 1958 
L 3987 428 
C 3987 184 3962 153 3552 153 
L 3552 -13 
C 3706 0 3987 0 4154 0 
C 4320 0 4608 0 4762 -13 
L 4762 153 
C 4352 153 4326 178 4326 428 
L 4326 1933 
z
" transform="scale(0.015625)"/>
       <path id="CMR17-65" d="M 2438 1472 
C 2464 1498 2464 1511 2464 1576 
C 2464 2238 2118 2816 1389 2816 
C 710 2816 173 2169 173 1383 
C 173 551 781 -64 1459 -64 
C 2176 -64 2458 607 2458 740 
C 2458 784 2419 784 2406 784 
C 2362 784 2355 771 2330 696 
C 2189 265 1837 51 1504 51 
C 1229 51 954 203 781 480 
C 582 803 582 1176 582 1472 
L 2438 1472 
z
M 589 1568 
C 634 2505 1126 2714 1382 2714 
C 1818 2714 2112 2297 2118 1568 
L 589 1568 
z
" transform="scale(0.015625)"/>
       <path id="CMR17-73" d="M 1978 2697 
C 1978 2813 1971 2819 1933 2819 
C 1907 2819 1901 2813 1824 2717 
C 1805 2691 1747 2626 1728 2601 
C 1523 2819 1235 2819 1126 2819 
C 416 2819 160 2447 160 2076 
C 160 1498 813 1365 998 1325 
C 1402 1243 1542 1217 1677 1101 
C 1760 1025 1901 884 1901 654 
C 1901 384 1747 38 1158 38 
C 602 38 403 460 288 1021 
C 269 1110 269 1117 218 1117 
C 166 1117 160 1110 160 983 
L 160 63 
C 160 -51 166 -58 205 -58 
C 237 -58 243 -51 275 0 
C 314 57 410 211 448 276 
C 576 103 800 -64 1158 -64 
C 1792 -64 2131 283 2131 784 
C 2131 1112 1958 1285 1875 1362 
C 1683 1561 1459 1606 1190 1657 
C 838 1735 390 1825 390 2217 
C 390 2383 480 2737 1126 2737 
C 1811 2737 1850 2094 1862 1888 
C 1869 1856 1901 1849 1920 1849 
C 1978 1849 1978 1869 1978 1978 
L 1978 2697 
z
" transform="scale(0.015625)"/>
       <path id="CMR17-74" d="M 966 2560 
L 1862 2560 
L 1862 2725 
L 966 2725 
L 966 3904 
L 851 3904 
C 838 3245 614 2668 70 2668 
L 70 2560 
L 627 2560 
L 627 771 
C 627 650 627 -64 1370 -64 
C 1747 -64 1965 306 1965 777 
L 1965 1140 
L 1850 1140 
L 1850 783 
C 1850 344 1677 51 1408 51 
C 1222 51 966 178 966 758 
L 966 2560 
z
" transform="scale(0.015625)"/>
       <path id="CMR17-70" d="M 1408 -1063 
C 998 -1063 973 -1037 973 -789 
L 973 402 
C 1158 134 1427 -38 1766 -38 
C 2406 -38 3053 523 3053 1388 
C 3053 2191 2496 2802 1837 2802 
C 1453 2802 1139 2592 960 2338 
L 960 2802 
L 198 2732 
L 198 2567 
C 576 2567 634 2528 634 2223 
L 634 -789 
C 634 -1031 608 -1063 198 -1063 
L 198 -1228 
C 352 -1216 634 -1216 800 -1216 
C 966 -1216 1254 -1216 1408 -1228 
L 1408 -1063 
z
M 973 2012 
C 973 2102 973 2235 1222 2471 
C 1254 2497 1472 2688 1792 2688 
C 2259 2688 2643 2108 2643 1382 
C 2643 656 2234 64 1728 64 
C 1498 64 1248 172 1056 472 
C 973 612 973 650 973 752 
L 973 2012 
z
" transform="scale(0.015625)"/>
      </defs>
      <use xlink:href="#CMR17-54" transform="scale(0.996264)"/>
      <use xlink:href="#CMR17-69" transform="translate(66.509881 0) scale(0.996264)"/>
      <use xlink:href="#CMR17-6d" transform="translate(91.380939 0) scale(0.996264)"/>
      <use xlink:href="#CMR17-65" transform="translate(168.300529 0) scale(0.996264)"/>
      <use xlink:href="#CMR17-73" transform="translate(238.862156 0) scale(0.996264)"/>
      <use xlink:href="#CMR17-74" transform="translate(274.663493 0) scale(0.996264)"/>
      <use xlink:href="#CMR17-65" transform="translate(309.944261 0) scale(0.996264)"/>
      <use xlink:href="#CMR17-70" transform="translate(350.429922 0) scale(0.996264)"/>
     </g>
    </g>
   </g>
   <g id="matplotlib.axis_2">
    <g id="ytick_1">
     <g id="line2d_9">
      <path d="M 73.727141 277.88234 
L 335.16 277.88234 
" clip-path="url(#pb3d993e05d)" style="fill: none; stroke-dasharray: 2.96,1.28; stroke-dashoffset: 0; stroke: #b0b0b0; stroke-opacity: 0.3; stroke-width: 0.8"/>
     </g>
     <g id="line2d_10">
      <defs>
       <path id="me41d116d6b" d="M 0 0 
L 3 0 
" style="stroke: #000000; stroke-width: 0.5"/>
      </defs>
      <g>
       <use xlink:href="#me41d116d6b" x="73.727141" y="277.88234" style="stroke: #000000; stroke-width: 0.5"/>
      </g>
     </g>
     <g id="text_6">
      <!-- $\mathdefault{0}$ -->
      <g transform="translate(59.718332 285.83861) scale(0.23 -0.23)">
       <use xlink:href="#CMR17-30" transform="scale(0.996264)"/>
      </g>
     </g>
    </g>
    <g id="ytick_2">
     <g id="line2d_11">
      <path d="M 73.727141 226.271578 
L 335.16 226.271578 
" clip-path="url(#pb3d993e05d)" style="fill: none; stroke-dasharray: 2.96,1.28; stroke-dashoffset: 0; stroke: #b0b0b0; stroke-opacity: 0.3; stroke-width: 0.8"/>
     </g>
     <g id="line2d_12">
      <g>
       <use xlink:href="#me41d116d6b" x="73.727141" y="226.271578" style="stroke: #000000; stroke-width: 0.5"/>
      </g>
     </g>
     <g id="text_7">
      <!-- $\mathdefault{5}$ -->
      <g transform="translate(59.718332 234.227849) scale(0.23 -0.23)">
       <defs>
        <path id="CMR17-35" d="M 730 3692 
C 794 3666 1056 3584 1325 3584 
C 1920 3584 2246 3911 2432 4100 
C 2432 4157 2432 4192 2394 4192 
C 2387 4192 2374 4192 2323 4163 
C 2099 4058 1837 3973 1517 3973 
C 1325 3973 1037 3999 723 4139 
C 653 4171 640 4171 634 4171 
C 602 4171 595 4164 595 4037 
L 595 2203 
C 595 2089 595 2057 659 2057 
C 691 2057 704 2070 736 2114 
C 941 2401 1222 2522 1542 2522 
C 1766 2522 2246 2382 2246 1289 
C 2246 1085 2246 715 2054 421 
C 1894 159 1645 25 1370 25 
C 947 25 518 320 403 814 
C 429 807 480 795 506 795 
C 589 795 749 840 749 1038 
C 749 1210 627 1280 506 1280 
C 358 1280 262 1190 262 1011 
C 262 454 704 -128 1382 -128 
C 2042 -128 2669 440 2669 1264 
C 2669 2030 2170 2624 1549 2624 
C 1222 2624 947 2503 730 2274 
L 730 3692 
z
" transform="scale(0.015625)"/>
       </defs>
       <use xlink:href="#CMR17-35" transform="scale(0.996264)"/>
      </g>
     </g>
    </g>
    <g id="ytick_3">
     <g id="line2d_13">
      <path d="M 73.727141 174.660816 
L 335.16 174.660816 
" clip-path="url(#pb3d993e05d)" style="fill: none; stroke-dasharray: 2.96,1.28; stroke-dashoffset: 0; stroke: #b0b0b0; stroke-opacity: 0.3; stroke-width: 0.8"/>
     </g>
     <g id="line2d_14">
      <g>
       <use xlink:href="#me41d116d6b" x="73.727141" y="174.660816" style="stroke: #000000; stroke-width: 0.5"/>
      </g>
     </g>
     <g id="text_8">
      <!-- $\mathdefault{10}$ -->
      <g transform="translate(49.209522 182.617087) scale(0.23 -0.23)">
       <use xlink:href="#CMR17-31" transform="scale(0.996264)"/>
       <use xlink:href="#CMR17-30" transform="translate(45.690477 0) scale(0.996264)"/>
      </g>
     </g>
    </g>
    <g id="ytick_4">
     <g id="line2d_15">
      <path d="M 73.727141 123.050055 
L 335.16 123.050055 
" clip-path="url(#pb3d993e05d)" style="fill: none; stroke-dasharray: 2.96,1.28; stroke-dashoffset: 0; stroke: #b0b0b0; stroke-opacity: 0.3; stroke-width: 0.8"/>
     </g>
     <g id="line2d_16">
      <g>
       <use xlink:href="#me41d116d6b" x="73.727141" y="123.050055" style="stroke: #000000; stroke-width: 0.5"/>
      </g>
     </g>
     <g id="text_9">
      <!-- $\mathdefault{15}$ -->
      <g transform="translate(49.209522 131.006326) scale(0.23 -0.23)">
       <use xlink:href="#CMR17-31" transform="scale(0.996264)"/>
       <use xlink:href="#CMR17-35" transform="translate(45.690477 0) scale(0.996264)"/>
      </g>
     </g>
    </g>
    <g id="ytick_5">
     <g id="line2d_17">
      <path d="M 73.727141 71.439293 
L 335.16 71.439293 
" clip-path="url(#pb3d993e05d)" style="fill: none; stroke-dasharray: 2.96,1.28; stroke-dashoffset: 0; stroke: #b0b0b0; stroke-opacity: 0.3; stroke-width: 0.8"/>
     </g>
     <g id="line2d_18">
      <g>
       <use xlink:href="#me41d116d6b" x="73.727141" y="71.439293" style="stroke: #000000; stroke-width: 0.5"/>
      </g>
     </g>
     <g id="text_10">
      <!-- $\mathdefault{20}$ -->
      <g transform="translate(49.209522 79.395564) scale(0.23 -0.23)">
       <use xlink:href="#CMR17-32" transform="scale(0.996264)"/>
       <use xlink:href="#CMR17-30" transform="translate(45.690477 0) scale(0.996264)"/>
      </g>
     </g>
    </g>
    <g id="text_11">
     <!-- Online Accuracy -->
     <g transform="translate(40.752542 242.760759) rotate(-90) scale(0.23 -0.23)">
      <defs>
       <path id="CMR17-4f" d="M 4307 2135 
C 4307 3437 3366 4416 2304 4416 
C 1216 4416 294 3424 294 2135 
C 294 845 1229 -128 2298 -128 
C 3392 -128 4307 864 4307 2135 
z
M 2304 -13 
C 1574 -13 781 711 781 2217 
C 781 3716 1651 4301 2298 4301 
C 2976 4301 3821 3698 3821 2217 
C 3821 686 3008 -13 2304 -13 
z
" transform="scale(0.015625)"/>
       <path id="CMR17-6e" d="M 2656 1933 
C 2656 2259 2592 2790 1837 2790 
C 1331 2790 1069 2400 973 2144 
L 966 2144 
L 966 2790 
L 211 2720 
L 211 2554 
C 589 2554 646 2515 646 2208 
L 646 428 
C 646 184 621 153 211 153 
L 211 -13 
C 365 0 646 0 813 0 
C 979 0 1267 0 1421 -13 
L 1421 153 
C 1011 153 986 178 986 428 
L 986 1658 
C 986 2247 1344 2688 1792 2688 
C 2266 2688 2317 2266 2317 1958 
L 2317 428 
C 2317 184 2291 153 1882 153 
L 1882 -13 
C 2035 0 2317 0 2483 0 
C 2650 0 2938 0 3091 -13 
L 3091 153 
C 2682 153 2656 178 2656 428 
L 2656 1933 
z
" transform="scale(0.015625)"/>
       <path id="CMR17-6c" d="M 979 4396 
L 218 4326 
L 218 4160 
C 595 4160 653 4122 653 3817 
L 653 426 
C 653 184 627 153 218 153 
L 218 -13 
C 371 0 653 0 813 0 
C 979 0 1261 0 1414 -13 
L 1414 153 
C 1005 153 979 178 979 426 
L 979 4396 
z
" transform="scale(0.015625)"/>
       <path id="CMR17-41" d="M 2323 4378 
C 2291 4461 2278 4480 2214 4480 
C 2150 4480 2138 4461 2106 4378 
L 749 566 
C 627 223 371 153 147 153 
L 147 -13 
C 262 0 518 0 640 0 
C 800 0 1056 0 1210 -13 
L 1210 153 
C 909 153 864 361 864 439 
C 864 497 877 530 890 569 
L 1229 1536 
L 2906 1536 
L 3290 442 
C 3322 365 3322 352 3322 327 
C 3322 153 3046 153 2925 153 
L 2925 0 
C 3110 0 3443 0 3642 0 
C 3808 0 4128 0 4282 -13 
L 4282 153 
C 3942 153 3827 153 3744 387 
L 2323 4378 
z
M 2067 3893 
L 2848 1702 
L 1286 1702 
L 2067 3893 
z
" transform="scale(0.015625)"/>
       <path id="CMR17-63" d="M 2234 2240 
C 2112 2240 1933 2240 1933 2017 
C 1933 1838 2080 1787 2163 1787 
C 2208 1787 2394 1807 2394 2024 
C 2394 2467 1958 2803 1466 2803 
C 787 2803 211 2178 211 1363 
C 211 516 813 -64 1466 -64 
C 2259 -64 2458 677 2458 748 
C 2458 774 2451 793 2406 793 
C 2362 793 2355 787 2330 703 
C 2163 180 1798 51 1523 51 
C 1114 51 621 427 621 1369 
C 621 2338 1094 2688 1472 2688 
C 1722 2688 2093 2573 2234 2240 
z
" transform="scale(0.015625)"/>
       <path id="CMR17-75" d="M 1882 2693 
L 1882 2528 
C 2259 2528 2317 2489 2317 2186 
L 2317 1032 
C 2317 500 2029 38 1555 38 
C 1030 38 986 348 986 678 
L 986 2763 
L 211 2693 
L 211 2528 
C 467 2528 640 2528 646 2274 
L 646 1058 
C 646 633 646 361 813 183 
C 896 101 1056 -64 1517 -64 
C 2061 -64 2272 377 2323 506 
L 2330 506 
L 2330 -63 
L 3091 -63 
L 3091 128 
C 2714 128 2656 166 2656 473 
L 2656 2763 
L 1882 2693 
z
" transform="scale(0.015625)"/>
       <path id="CMR17-72" d="M 960 1497 
C 960 2112 1222 2688 1702 2688 
C 1747 2688 1792 2682 1837 2662 
C 1837 2662 1696 2617 1696 2452 
C 1696 2298 1818 2234 1914 2234 
C 1990 2234 2131 2279 2131 2458 
C 2131 2663 1926 2790 1709 2790 
C 1222 2790 1011 2317 947 2093 
L 941 2093 
L 941 2790 
L 198 2720 
L 198 2554 
C 576 2554 634 2515 634 2208 
L 634 428 
C 634 184 608 153 198 153 
L 198 -13 
C 352 0 646 0 813 0 
C 998 0 1325 0 1498 -13 
L 1498 153 
C 1037 153 960 153 960 440 
L 960 1497 
z
" transform="scale(0.015625)"/>
       <path id="CMR17-61" d="M 2304 1653 
C 2304 2072 2304 2294 2035 2543 
C 1798 2752 1523 2816 1306 2816 
C 800 2816 435 2407 435 1971 
C 435 1728 627 1728 666 1728 
C 749 1728 896 1778 896 1954 
C 896 2112 774 2181 666 2181 
C 640 2181 608 2174 589 2168 
C 723 2592 1069 2714 1293 2714 
C 1613 2714 1965 2429 1965 1885 
L 1965 1600 
C 1587 1600 1133 1549 774 1357 
C 371 1133 256 813 256 570 
C 256 77 832 -64 1171 -64 
C 1523 -64 1850 139 1990 511 
C 2003 233 2182 -18 2464 -18 
C 2598 -18 2938 70 2938 567 
L 2938 920 
L 2822 920 
L 2822 562 
C 2822 178 2650 128 2566 128 
C 2304 128 2304 458 2304 738 
L 2304 1653 
z
M 1965 870 
C 1965 317 1568 38 1216 38 
C 896 38 646 275 646 570 
C 646 761 730 1100 1101 1305 
C 1408 1478 1760 1504 1965 1504 
L 1965 870 
z
" transform="scale(0.015625)"/>
       <path id="CMR17-79" d="M 2496 2197 
C 2656 2586 2944 2586 3034 2586 
L 3034 2752 
C 2912 2752 2752 2752 2630 2752 
C 2496 2752 2285 2752 2157 2758 
L 2157 2592 
C 2400 2573 2406 2394 2406 2343 
C 2406 2280 2394 2248 2362 2171 
L 1664 449 
L 902 2306 
C 870 2382 870 2426 870 2433 
C 870 2573 1018 2586 1171 2586 
L 1171 2758 
C 1018 2752 742 2752 582 2752 
C 410 2752 205 2752 64 2758 
L 64 2586 
C 410 2586 448 2554 531 2350 
L 1485 15 
C 1197 -738 1030 -1178 627 -1178 
C 557 -1178 397 -1159 282 -1044 
C 429 -1031 493 -942 493 -833 
C 493 -725 416 -629 288 -629 
C 147 -629 77 -725 77 -840 
C 77 -1095 339 -1280 627 -1280 
C 998 -1280 1229 -922 1357 -604 
L 2496 2197 
z
" transform="scale(0.015625)"/>
      </defs>
      <use xlink:href="#CMR17-4f" transform="scale(0.996264)"/>
      <use xlink:href="#CMR17-6e" transform="translate(71.714788 0) scale(0.996264)"/>
      <use xlink:href="#CMR17-6c" transform="translate(122.610158 0) scale(0.996264)"/>
      <use xlink:href="#CMR17-69" transform="translate(147.481217 0) scale(0.996264)"/>
      <use xlink:href="#CMR17-6e" transform="translate(172.352275 0) scale(0.996264)"/>
      <use xlink:href="#CMR17-65" transform="translate(223.247645 0) scale(0.996264)"/>
      <use xlink:href="#CMR17-41" transform="translate(293.809272 0) scale(0.996264)"/>
      <use xlink:href="#CMR17-63" transform="translate(362.881702 0) scale(0.996264)"/>
      <use xlink:href="#CMR17-63" transform="translate(403.367362 0) scale(0.996264)"/>
      <use xlink:href="#CMR17-75" transform="translate(443.853022 0) scale(0.996264)"/>
      <use xlink:href="#CMR17-72" transform="translate(494.748392 0) scale(0.996264)"/>
      <use xlink:href="#CMR17-61" transform="translate(530.02916 0) scale(0.996264)"/>
      <use xlink:href="#CMR17-63" transform="translate(575.719637 0) scale(0.996264)"/>
      <use xlink:href="#CMR17-79" transform="translate(616.205298 0) scale(0.996264)"/>
     </g>
    </g>
   </g>
   <g id="line2d_19">
    <path d="M 84.55227 183.76778 
L 84.601497 183.816763 
L 84.984762 173.243678 
L 85.484062 179.787183 
L 85.512191 177.720648 
L 85.884908 176.364887 
L 85.948199 175.377635 
L 85.990393 176.4549 
L 86.236527 178.970753 
L 86.651438 178.795826 
L 86.763956 177.418871 
L 87.245674 177.284875 
L 87.449614 176.374888 
L 87.808265 173.777005 
L 87.973526 173.462667 
L 88.39547 172.06881 
L 88.507988 172.187627 
L 88.609957 172.55651 
L 88.6627 172.446779 
L 88.775219 172.129508 
L 88.908834 170.210337 
L 89.285067 166.923169 
L 89.844141 166.987657 
L 89.939079 166.588809 
L 90.037532 166.917086 
L 90.304763 166.846111 
L 90.410248 167.162309 
L 90.983388 165.1654 
L 91.043163 165.269047 
L 91.363137 166.030213 
L 91.771015 166.320019 
L 91.844855 166.451554 
L 92.720388 166.199214 
L 92.906746 165.38118 
L 93.17046 165.547376 
L 93.617017 166.432595 
L 94.499581 166.289946 
L 94.90746 165.793642 
L 95.280176 163.939806 
L 95.64586 163.429642 
L 95.927156 162.672592 
L 96.349099 162.279935 
L 96.567103 161.673675 
L 96.595233 161.682977 
L 96.697202 161.298668 
L 96.880044 160.661823 
L 97.231664 159.978464 
L 97.273858 160.026936 
L 97.435603 160.104752 
L 97.505927 159.877898 
L 97.512959 159.884828 
L 98.47288 158.071756 
L 98.606495 157.113327 
L 98.880758 156.841495 
L 99.66487 155.460977 
L 100.301301 154.151295 
L 100.849827 154.302617 
L 101.320997 154.076599 
L 101.978525 153.081502 
L 102.224658 152.910423 
L 102.769668 152.210812 
L 102.864606 152.334965 
L 102.903284 152.348953 
L 104.812577 149.517797 
L 104.854771 149.556435 
L 106.79571 148.513938 
L 107.066457 148.116439 
L 107.175459 146.55043 
L 107.966602 144.966063 
L 107.991216 145.015263 
L 108.613582 144.447541 
L 108.803456 144.344416 
L 110.593199 141.677438 
L 110.944818 141.408077 
L 111.261275 140.943708 
L 111.809802 140.500178 
L 112.024289 139.884378 
L 112.794336 139.285117 
L 114.151586 138.032205 
L 114.538368 137.472005 
L 115.368189 137.147321 
L 115.593226 137.09564 
L 115.705744 137.066906 
L 116.510952 136.448931 
L 118.054561 136.351249 
L 118.205758 136.243674 
L 118.785929 136.299489 
L 119.640364 136.068471 
L 120.786643 135.402516 
L 121.064423 135.062998 
L 121.250781 134.996315 
L 121.985665 134.537901 
L 122.604515 133.995833 
L 122.949102 134.098574 
L 124.527873 133.516815 
L 125.470213 132.553189 
L 125.776122 132.495021 
L 126.219162 132.240712 
L 126.887239 131.998392 
L 127.087662 131.721511 
L 127.091178 131.728185 
L 127.548283 131.641155 
L 127.99484 131.288908 
L 128.153069 131.343876 
L 130.125653 130.348316 
L 130.449143 129.949291 
L 130.533532 129.969343 
L 131.032831 129.306745 
L 131.911879 128.989976 
L 132.456889 128.407538 
L 132.639732 128.41753 
L 133.620749 127.220001 
L 134.570122 126.579227 
L 136.454801 124.845536 
L 136.897842 124.201317 
L 138.082799 123.574709 
L 138.311352 123.619912 
L 138.476613 123.41188 
L 138.796586 123.295652 
L 139.26424 122.928452 
L 141.2966 122.267065 
L 142.520235 122.239492 
L 142.896468 122.005639 
L 143.103923 122.003956 
L 143.381702 121.661513 
L 144.032198 121.301982 
L 144.668629 121.274813 
L 144.781147 121.156232 
L 146.219271 120.498369 
L 147.1159 119.672923 
L 147.55894 119.314218 
L 149.225616 118.313539 
L 149.362747 118.293241 
L 149.802272 118.016379 
L 149.911274 118.063857 
L 151.975279 117.162799 
L 152.994975 116.620701 
L 153.645471 116.017354 
L 155.385987 113.384919 
L 155.962643 112.667264 
L 156.215808 112.698489 
L 156.525233 112.600226 
L 157.861387 111.921327 
L 158.111037 111.596771 
L 158.487269 111.554678 
L 159.710905 110.516277 
L 160.428208 110.238539 
L 160.83257 109.821686 
L 161.483066 108.531417 
L 161.70107 108.132067 
L 163.367746 107.699051 
L 164.225697 107.337796 
L 164.366345 107.371148 
L 165.920502 106.579397 
L 166.560449 106.555201 
L 166.683516 106.472472 
L 168.265803 106.424808 
L 169.099141 106.696088 
L 171.14205 106.454595 
L 171.356537 106.343555 
L 171.890999 106.018468 
L 172.935308 105.710805 
L 174.018296 104.524941 
L 174.67934 103.953498 
L 176.09285 103.714231 
L 176.581601 103.40765 
L 177.133643 102.864991 
L 177.956432 102.918739 
L 180.132956 102.126437 
L 180.474027 102.084384 
L 180.941681 101.966158 
L 182.400901 101.673654 
L 183.156882 101.464351 
L 183.87067 101.199627 
L 184.007801 101.186555 
L 185.048595 100.637576 
L 185.685026 100.303117 
L 185.899513 100.147031 
L 186.968436 99.887564 
L 187.059857 99.885438 
L 187.749031 99.562575 
L 188.023294 99.45626 
L 188.367881 99.209098 
L 188.930472 99.157259 
L 190.860862 98.676302 
L 191.704749 98.191034 
L 192.372825 97.936311 
L 192.829931 97.90483 
L 193.22726 97.527314 
L 193.490975 97.490005 
L 195.678047 96.454557 
L 196.360189 96.419493 
L 196.915747 96.323908 
L 197.713923 96.007169 
L 198.044445 95.97236 
L 198.339806 95.982874 
L 199.348953 95.682967 
L 200.108451 95.844448 
L 201.170341 95.503492 
L 201.690738 95.431985 
L 202.235748 95.294426 
L 202.974149 95.136174 
L 203.026891 95.083332 
L 204.204816 94.796872 
L 205.927751 93.949149 
L 207.133805 93.535741 
L 209.40175 92.422585 
L 209.802596 92.447096 
L 210.530448 92.121241 
L 211.743535 91.976141 
L 216.48688 90.785001 
L 218.818116 90.337651 
L 218.884924 90.302213 
L 220.073397 90.003173 
L 220.259755 90.007898 
L 220.62544 89.838247 
L 223.61772 89.236544 
L 224.53193 88.970206 
L 226.395513 88.316881 
L 231.082599 86.857827 
L 231.399056 86.838001 
L 232.373042 86.836131 
L 232.844212 86.800378 
L 235.678264 86.014789 
L 235.956043 85.8753 
L 241.272527 84.012604 
L 241.508112 83.925288 
L 243.920221 82.943746 
L 243.983512 82.94223 
L 245.432184 82.562863 
L 246.666368 82.158729 
L 248.195912 81.751543 
L 248.354141 81.669778 
L 248.43853 81.67096 
L 251.525747 80.574912 
L 254.089052 80.010872 
L 255.390044 79.616385 
L 257.348564 79.355835 
L 257.580632 79.379382 
L 259.349278 79.034134 
L 261.037051 78.833415 
L 261.392186 78.765925 
L 261.631287 78.745292 
L 262.925246 78.919806 
L 263.473773 78.848398 
L 263.916813 78.629094 
L 264.739602 78.510395 
L 267.858466 77.59209 
L 270.140475 77.059788 
L 271.546953 76.678216 
L 276.91618 75.313191 
L 279.599036 74.307728 
L 281.367681 73.791806 
L 282.443636 73.420176 
L 283.723531 73.022361 
L 288.860689 71.320024 
L 292.355785 69.553877 
L 292.84102 68.885373 
L 292.84102 68.885373 
" clip-path="url(#pb3d993e05d)" style="fill: none; stroke: #7f2704; stroke-width: 3; stroke-linecap: square"/>
   </g>
   <g id="line2d_20">
    <path d="M 292.84102 68.885373 
" clip-path="url(#pb3d993e05d)" style="fill: none; stroke: #7f2704; stroke-opacity: 0.8; stroke-width: 3; stroke-linecap: square"/>
    <defs>
     <path id="md52bd713e3" d="M 0 -5 
L -1.12257 -1.545085 
L -4.755283 -1.545085 
L -1.816356 0.59017 
L -2.938926 4.045085 
L -0 1.90983 
L 2.938926 4.045085 
L 1.816356 0.59017 
L 4.755283 -1.545085 
L 1.12257 -1.545085 
z
" style="stroke: #000000; stroke-opacity: 0.8; stroke-width: 0.5; stroke-linejoin: bevel"/>
    </defs>
    <g clip-path="url(#pb3d993e05d)">
     <use xlink:href="#md52bd713e3" x="292.84102" y="68.885373" style="fill: #7f2704; fill-opacity: 0.8; stroke: #000000; stroke-opacity: 0.8; stroke-width: 0.5; stroke-linejoin: bevel"/>
    </g>
   </g>
   <g id="line2d_21">
    <path d="M 84.179554 268.366605 
L 84.351847 254.236519 
L 84.714015 235.600144 
L 84.907406 237.546568 
L 84.960149 237.429346 
L 85.505159 236.7696 
L 86.011491 231.596064 
L 86.306851 232.187933 
L 87.337095 226.054878 
L 87.386322 225.995194 
L 88.012205 220.647176 
L 88.015721 220.683047 
L 88.07198 220.41223 
L 88.574796 218.919091 
L 88.725992 218.095997 
L 89.38352 212.809268 
L 89.496038 213.007535 
L 89.805463 212.966181 
L 90.10434 212.708529 
L 90.835708 210.752586 
L 91.454558 210.337934 
L 91.908147 210.047527 
L 91.999568 209.817616 
L 92.28438 209.717537 
L 92.417995 209.224728 
L 92.702807 208.886209 
L 92.759066 208.633076 
L 92.783679 208.662322 
L 93.195074 208.339268 
L 93.212655 208.39405 
L 93.511531 208.633908 
L 94.847685 207.213191 
L 95.459502 204.715805 
L 96.275259 203.481967 
L 96.415907 202.886377 
L 96.479198 202.915338 
L 96.605781 202.726624 
L 97.01366 201.678468 
L 97.75206 200.936714 
L 99.053052 197.479408 
L 99.963746 196.822884 
L 101.335061 195.663648 
L 102.080494 194.689263 
L 102.446179 194.508773 
L 102.797798 194.01181 
L 102.857573 194.075767 
L 103.89485 193.184749 
L 103.975723 192.902168 
L 104.475022 192.16073 
L 104.573476 191.91345 
L 105.209907 191.796021 
L 105.466589 192.022747 
L 105.737336 191.382732 
L 106.127633 191.134348 
L 107.01723 190.418012 
L 107.242266 188.222492 
L 107.555208 188.052831 
L 107.600918 187.840811 
L 108.054507 187.19421 
L 108.898394 186.297976 
L 109.337918 185.662764 
L 109.81612 185.274478 
L 110.192353 184.286892 
L 110.885043 183.374159 
L 110.941302 183.349519 
L 111.240178 182.925923 
L 112.358328 181.618083 
L 112.998275 181.150484 
L 113.887872 180.216793 
L 114.696596 179.680858 
L 114.956795 179.731781 
L 115.508837 179.372397 
L 115.790133 179.411517 
L 116.619954 178.683831 
L 117.136835 178.570261 
L 117.836557 178.534518 
L 118.153015 178.190815 
L 118.515183 178.256248 
L 119.105903 178.17538 
L 119.165678 178.109307 
L 121.247265 176.594015 
L 121.391429 176.450116 
L 122.059506 176.098519 
L 122.404092 175.680268 
L 124.067252 175.227376 
L 124.67907 174.861761 
L 125.115078 174.358223 
L 125.231112 174.34956 
L 125.568667 173.986052 
L 126.489909 173.608506 
L 127.361925 173.311434 
L 127.544767 173.333632 
L 127.917484 173.126023 
L 128.269103 173.158705 
L 132.706539 170.600218 
L 133.599652 169.517666 
L 133.933691 169.381741 
L 135.171391 168.445569 
L 135.245231 168.33004 
L 136.099666 167.798239 
L 137.020909 166.714024 
L 137.316269 166.69914 
L 138.079283 166.229967 
L 138.371127 166.300755 
L 138.434418 166.150309 
L 139.106011 165.811076 
L 139.791669 165.56161 
L 140.519521 165.380294 
L 141.184082 165.208251 
L 141.271986 165.206961 
L 142.101808 165.129923 
L 142.555397 165.035224 
L 142.843725 164.814472 
L 143.019535 164.774644 
L 143.701676 164.169938 
L 144.039231 164.047164 
L 144.53853 164.023037 
L 144.904214 163.790512 
L 145.512516 163.645629 
L 147.073706 162.60078 
L 147.144029 162.486541 
L 148.845867 161.598595 
L 151.59553 160.489209 
L 151.634208 160.520985 
L 151.933085 160.243611 
L 152.692583 159.901405 
L 153.023105 159.651664 
L 153.789635 158.996666 
L 154.450679 157.96046 
L 154.883171 157.153126 
L 155.146886 156.946442 
L 156.043515 156.030992 
L 157.154632 155.845866 
L 159.352253 154.51315 
L 159.721453 154.103198 
L 159.749583 154.107313 
L 160.452822 153.736579 
L 160.61105 153.6034 
L 160.96267 153.012574 
L 161.676457 151.784982 
L 162.646926 151.608617 
L 163.652558 151.122719 
L 164.366345 151.042855 
L 164.605446 150.988063 
L 164.848063 150.752664 
L 166.409253 150.329177 
L 167.29885 150.228581 
L 170.27355 150.211561 
L 170.758784 150.100294 
L 171.680027 149.650297 
L 171.876934 149.541915 
L 172.861468 149.235393 
L 174.296075 147.776861 
L 174.38398 147.780523 
L 174.693405 147.619308 
L 174.950087 147.586085 
L 175.632229 147.532179 
L 176.866412 146.871383 
L 177.193418 146.489447 
L 177.945884 146.495698 
L 180.466994 145.729069 
L 180.583029 145.708938 
L 180.776419 145.582374 
L 180.860808 145.599749 
L 182.724391 145.361682 
L 183.406532 145.115347 
L 184.384034 144.777826 
L 185.298244 144.345381 
L 186.233552 143.808067 
L 187.207537 143.681405 
L 187.531027 143.364705 
L 189.109798 142.823493 
L 189.605581 142.72461 
L 190.997994 142.335803 
L 191.395324 141.988606 
L 192.580281 141.702698 
L 195.853857 140.503121 
L 196.163282 140.55874 
L 196.880585 140.371094 
L 197.151332 140.361319 
L 197.499435 140.104824 
L 198.469905 140.09502 
L 199.373567 139.856599 
L 200.104935 139.944062 
L 205.101446 138.558956 
L 205.685134 138.201827 
L 207.186548 137.755442 
L 209.447461 136.836045 
L 209.94676 136.847562 
L 210.470673 136.557204 
L 211.318076 136.572453 
L 214.99953 135.601266 
L 216.423588 135.365789 
L 217.137376 135.261472 
L 219.53542 134.701015 
L 219.774521 134.56132 
L 220.083946 134.555955 
L 221.747105 134.153622 
L 225.358236 133.502866 
L 226.005216 133.198628 
L 228.575553 132.432403 
L 231.842097 131.753907 
L 232.541819 131.760513 
L 234.820312 131.194012 
L 237.724688 130.023042 
L 239.120617 129.629057 
L 240.04186 129.348169 
L 243.603764 128.069457 
L 245.098146 127.776165 
L 247.084795 127.249946 
L 247.503222 127.158013 
L 248.762019 126.750709 
L 249.240222 126.564461 
L 250.161464 126.266907 
L 252.246567 125.65415 
L 253.614366 125.312908 
L 253.846435 125.257093 
L 255.309172 124.848283 
L 256.001862 124.67244 
L 256.684003 124.638134 
L 257.622827 124.53425 
L 257.654473 124.537065 
L 257.967414 124.416831 
L 259.637606 124.217363 
L 259.918901 124.112416 
L 260.421717 124.056237 
L 260.657302 124.066524 
L 262.004004 123.98093 
L 263.396416 123.938995 
L 263.554645 123.867912 
L 268.934421 122.430613 
L 270.664388 122.051394 
L 270.924587 121.908745 
L 272.707297 121.690455 
L 274.120806 121.302228 
L 274.693946 121.170191 
L 275.657383 120.873691 
L 275.794514 120.879971 
L 276.040648 120.743908 
L 279.043477 119.768971 
L 280.43589 119.378933 
L 280.530827 119.302553 
L 284.011858 118.193817 
L 285.298785 117.781473 
L 288.618072 116.59869 
L 292.492917 114.72551 
L 292.492917 114.72551 
" clip-path="url(#pb3d993e05d)" style="fill: none; stroke: #c54102; stroke-width: 3; stroke-linecap: square"/>
   </g>
   <g id="line2d_22">
    <path d="M 292.492917 114.72551 
" clip-path="url(#pb3d993e05d)" style="fill: none; stroke: #c54102; stroke-opacity: 0.8; stroke-width: 3; stroke-linecap: square"/>
    <defs>
     <path id="m7f7200afba" d="M -0 7.071068 
L 4.242641 0 
L -0 -7.071068 
L -4.242641 -0 
z
" style="stroke: #000000; stroke-opacity: 0.8; stroke-width: 0.5; stroke-linejoin: miter"/>
    </defs>
    <g clip-path="url(#pb3d993e05d)">
     <use xlink:href="#m7f7200afba" x="292.492917" y="114.72551" style="fill: #c54102; fill-opacity: 0.8; stroke: #000000; stroke-opacity: 0.8; stroke-width: 0.5; stroke-linejoin: miter"/>
    </g>
   </g>
   <g id="line2d_23">
    <path d="M 84.43272 263.445488 
L 84.629627 252.696381 
L 84.988278 247.729022 
L 85.100796 247.392619 
L 85.533288 248.589966 
L 86.03962 244.940382 
L 86.415853 244.037744 
L 87.038219 238.349233 
L 87.319514 238.159771 
L 88.149336 233.228441 
L 89.024868 228.307375 
L 89.710526 225.945546 
L 89.805463 226.205461 
L 89.840625 225.986841 
L 90.107856 226.051905 
L 90.244987 225.835603 
L 90.564961 225.653293 
L 90.839224 224.91371 
L 92.21054 224.534299 
L 92.340639 224.550113 
L 93.645146 223.319287 
L 94.977784 220.85986 
L 95.301274 219.5854 
L 95.82167 219.115075 
L 97.287923 216.292532 
L 97.829417 215.958876 
L 99.102279 213.042831 
L 99.689483 212.528724 
L 100.185266 212.407619 
L 100.262622 212.068135 
L 100.515788 211.93341 
L 100.916634 212.015051 
L 101.503839 211.376118 
L 101.823812 211.218438 
L 103.191612 210.299527 
L 103.610039 210.115829 
L 104.21834 209.381011 
L 104.612154 208.908028 
L 105.090356 208.839302 
L 106.901196 207.556249 
L 107.200072 205.776971 
L 108.177574 204.808467 
L 108.311189 204.775307 
L 109.830185 203.114073 
L 110.25916 202.34896 
L 110.733846 201.837172 
L 111.219081 201.575076 
L 111.84848 200.938644 
L 112.629075 200.565543 
L 113.283087 199.64742 
L 114.47156 199.270361 
L 114.939214 199.054458 
L 117.214191 197.693421 
L 117.615037 197.633949 
L 118.504634 197.20867 
L 120.058791 196.610171 
L 121.124198 195.596252 
L 121.546141 195.388121 
L 121.598884 195.326227 
L 122.115765 195.12916 
L 122.495513 194.745186 
L 123.012394 194.77837 
L 123.599598 194.602724 
L 124.010993 194.485414 
L 125.515924 193.7418 
L 126.226195 193.476338 
L 128.423816 193.344645 
L 128.771919 193.132822 
L 129.042666 193.119828 
L 132.745217 191.825376 
L 133.539877 191.28569 
L 135.719917 190.422856 
L 137.386593 189.432995 
L 137.815568 189.223171 
L 138.286738 189.240408 
L 138.480129 189.116856 
L 139.028655 189.050114 
L 139.545535 188.703547 
L 141.331762 188.191011 
L 141.718543 188.068276 
L 142.084227 188.051837 
L 142.404201 188.02389 
L 143.044148 187.657497 
L 143.546964 187.159471 
L 144.060328 186.985538 
L 144.162297 187.033084 
L 145.322641 186.600442 
L 145.487902 186.582535 
L 146.918993 185.674685 
L 147.970335 184.949745 
L 149.872595 184.233793 
L 150.375411 184.171806 
L 151.082166 183.937224 
L 151.824083 183.747383 
L 153.399337 183.064822 
L 153.968961 182.577624 
L 154.355742 181.859398 
L 154.788234 181.09143 
L 155.393019 180.61635 
L 155.712993 180.243736 
L 156.236906 180.130481 
L 156.771367 180.162829 
L 157.587124 179.970468 
L 160.090654 178.717202 
L 160.305141 178.655264 
L 160.727085 178.352916 
L 161.58152 176.801644 
L 161.985882 176.711345 
L 162.752412 176.670552 
L 164.17647 176.235261 
L 164.696867 176.158468 
L 165.287587 175.890437 
L 165.966213 175.729143 
L 166.669451 175.675267 
L 168.656101 175.653295 
L 169.812928 175.598681 
L 170.582975 175.409825 
L 170.765817 175.365123 
L 172.699723 174.489266 
L 172.935308 174.479205 
L 173.206055 174.263455 
L 174.369915 173.651721 
L 175.336868 173.413506 
L 176.53589 173.179939 
L 177.246161 172.63346 
L 178.177953 172.628095 
L 178.895256 172.407571 
L 180.343928 172.276705 
L 181.824245 172.134361 
L 182.959976 172.048413 
L 183.501469 171.928268 
L 185.424827 171.463051 
L 186.078839 171.057746 
L 187.734966 170.675504 
L 188.853116 170.335789 
L 191.789137 169.597589 
L 192.376342 169.462363 
L 192.938933 169.40131 
L 193.156937 169.224926 
L 193.955112 169.127628 
L 194.580995 168.880111 
L 195.101392 168.77548 
L 197.858087 168.134637 
L 198.730103 168.062077 
L 199.373567 167.884896 
L 200.150645 167.901394 
L 200.945305 167.685477 
L 204.872893 166.604835 
L 206.747024 166.003595 
L 207.263905 165.883715 
L 207.893303 165.750093 
L 208.775868 165.483055 
L 210.576159 165.00957 
L 211.747051 165.018223 
L 212.59797 164.876608 
L 213.315273 164.791821 
L 215.115564 164.423933 
L 215.375763 164.430715 
L 217.706999 164.258564 
L 219.225995 163.930287 
L 220.238658 163.738428 
L 221.272419 163.571602 
L 221.627555 163.493658 
L 222.99887 163.380432 
L 226.645163 162.739796 
L 227.038976 162.652382 
L 232.436333 161.488027 
L 233.03057 161.355399 
L 234.036201 161.042125 
L 234.883604 160.848474 
L 235.207094 160.74461 
L 235.467292 160.668802 
L 237.823142 159.748696 
L 239.243684 159.323682 
L 239.29291 159.272937 
L 240.966619 158.814208 
L 242.01796 158.53832 
L 242.337934 158.378405 
L 246.188166 157.783248 
L 246.610109 157.643996 
L 248.435013 157.286157 
L 252.387215 156.28726 
L 253.097486 156.183613 
L 255.857698 155.416 
L 258.167837 155.176053 
L 259.201598 154.953235 
L 260.316231 154.823658 
L 261.680514 154.615419 
L 262.696694 154.590602 
L 263.530032 154.430539 
L 264.162947 154.210507 
L 264.672795 154.074503 
L 268.333152 153.072455 
L 276.585658 151.473302 
L 277.865552 150.958482 
L 279.099736 150.628246 
L 286.634939 148.161829 
L 287.41905 147.879357 
L 288.305131 147.59778 
L 290.126519 146.7145 
L 292.837504 145.613245 
L 292.837504 145.613245 
" clip-path="url(#pb3d993e05d)" style="fill: none; stroke: #f3701b; stroke-width: 3; stroke-linecap: square"/>
   </g>
   <g id="line2d_24">
    <path d="M 292.837504 145.613245 
" clip-path="url(#pb3d993e05d)" style="fill: none; stroke: #f3701b; stroke-opacity: 0.8; stroke-width: 3; stroke-linecap: square"/>
    <defs>
     <path id="md017ff6959" d="M -2.5 5 
L 0 2.5 
L 2.5 5 
L 5 2.5 
L 2.5 0 
L 5 -2.5 
L 2.5 -5 
L 0 -2.5 
L -2.5 -5 
L -5 -2.5 
L -2.5 0 
L -5 2.5 
z
" style="stroke: #000000; stroke-opacity: 0.8; stroke-width: 0.5; stroke-linejoin: miter"/>
    </defs>
    <g clip-path="url(#pb3d993e05d)">
     <use xlink:href="#md017ff6959" x="292.837504" y="145.613245" style="fill: #f3701b; fill-opacity: 0.8; stroke: #000000; stroke-opacity: 0.8; stroke-width: 0.5; stroke-linejoin: miter"/>
    </g>
   </g>
   <g id="line2d_25">
    <path d="M 84.165489 276.538309 
L 84.242845 276.154301 
L 84.566335 264.361395 
L 84.844114 261.510835 
L 85.135958 258.819987 
L 85.287155 258.697031 
L 85.621193 257.072912 
L 85.955231 252.819177 
L 86.486177 251.149457 
L 87.593778 242.937552 
L 88.782251 238.708393 
L 89.211227 234.746524 
L 89.946111 234.030788 
L 90.00237 234.166345 
L 90.012919 234.147321 
L 90.241471 233.918134 
L 90.645833 234.039185 
L 90.716157 233.939668 
L 91.201392 233.112671 
L 92.150764 232.230641 
L 92.878616 230.986722 
L 93.655695 230.609245 
L 94.552324 229.317441 
L 94.675391 229.431015 
L 95.269628 227.458776 
L 95.642344 227.174669 
L 96.141644 226.394953 
L 96.486231 225.585089 
L 97.512959 223.890503 
L 97.815352 223.683076 
L 98.810435 221.718825 
L 100.498207 219.785557 
L 101.127606 219.832587 
L 101.556582 219.188063 
L 104.074176 217.920568 
L 104.11637 217.912373 
L 106.00105 216.821331 
L 106.742967 216.179745 
L 107.337204 214.175552 
L 110.072802 211.33786 
L 110.723298 210.634597 
L 111.096014 210.460102 
L 112.013741 209.831678 
L 112.186034 209.818625 
L 112.934984 209.319659 
L 113.835129 208.603726 
L 114.123457 208.587316 
L 114.552433 208.317025 
L 114.928665 208.248526 
L 117.29858 206.683374 
L 117.875235 206.398199 
L 118.135434 206.033293 
L 118.480021 206.089241 
L 118.585506 206.011425 
L 119.144581 205.89028 
L 120.280312 205.217764 
L 121.067939 204.476095 
L 121.848534 204.172128 
L 123.114364 203.544889 
L 123.494112 203.526998 
L 125.079916 202.960955 
L 126.053901 202.501896 
L 127.530702 202.537305 
L 127.878806 202.554532 
L 128.237457 202.511568 
L 128.339427 202.494272 
L 128.831694 202.286525 
L 130.723406 201.815318 
L 131.282481 201.531517 
L 131.95759 201.432737 
L 133.167161 200.851648 
L 133.786011 200.507212 
L 135.459719 199.934332 
L 135.603883 199.884847 
L 136.152409 199.565356 
L 136.423156 199.538866 
L 137.26001 198.94172 
L 138.631325 198.451624 
L 138.687584 198.417007 
L 138.86691 198.419857 
L 140.494908 197.774427 
L 140.716428 197.763722 
L 142.024452 197.249783 
L 142.615172 197.069225 
L 143.367638 196.736169 
L 143.529383 196.504171 
L 145.885232 195.73518 
L 146.693957 195.323938 
L 147.970335 194.519828 
L 148.578636 194.310978 
L 149.426039 193.918361 
L 149.707334 193.845674 
L 150.21015 193.804437 
L 151.465431 193.576677 
L 152.959813 192.992536 
L 154.053349 192.122112 
L 154.419034 191.458953 
L 154.61594 191.204191 
L 154.833944 190.725075 
L 156.075161 189.801918 
L 156.792464 189.80113 
L 157.882484 189.480266 
L 160.02033 188.443194 
L 160.688406 188.103783 
L 160.874765 187.853953 
L 161.416259 186.770417 
L 164.281956 186.021193 
L 164.97113 185.807628 
L 165.955664 185.556744 
L 166.669451 185.523718 
L 169.246821 185.373518 
L 171.338956 184.896795 
L 171.838256 184.600107 
L 173.877648 183.779415 
L 175.009862 183.375684 
L 176.669506 182.9772 
L 177.50636 182.668838 
L 177.928303 182.690406 
L 178.663187 182.536949 
L 180.227893 182.464467 
L 181.637887 182.29964 
L 182.263769 182.345168 
L 182.995138 182.252182 
L 183.434662 182.134438 
L 184.275032 182.045144 
L 185.906546 181.360742 
L 185.945224 181.304149 
L 188.005713 180.704976 
L 188.476883 180.491273 
L 191.117544 179.926189 
L 191.557069 179.688733 
L 191.936817 179.6214 
L 192.077465 179.56718 
L 192.889706 179.480799 
L 193.311649 179.311689 
L 194.440347 179.174258 
L 195.122489 179.003947 
L 196.57116 178.761756 
L 197.351755 178.568155 
L 197.453725 178.489728 
L 198.188609 178.384939 
L 198.283547 178.400689 
L 199.433342 178.109504 
L 200.157678 178.057873 
L 202.302556 177.495565 
L 202.763177 177.380991 
L 203.888359 177.10789 
L 204.078233 177.098686 
L 205.087381 176.749441 
L 205.748425 176.398661 
L 206.405953 176.265896 
L 207.569813 176.038844 
L 208.638736 175.788906 
L 209.834242 175.492573 
L 209.90105 175.495605 
L 210.604288 175.291352 
L 211.388399 175.343644 
L 212.974203 175.105793 
L 214.106417 174.878664 
L 214.197838 174.815829 
L 216.743562 174.710962 
L 218.747792 174.397057 
L 219.401804 174.20442 
L 223.547396 173.642113 
L 226.479902 173.223469 
L 231.86671 171.991161 
L 232.355461 171.955132 
L 235.347741 171.172103 
L 236.937061 170.562121 
L 240.534127 169.457667 
L 240.875198 169.34709 
L 241.043975 169.292505 
L 241.592501 169.201212 
L 242.351999 168.901571 
L 242.461001 168.860148 
L 248.754987 167.759799 
L 249.233189 167.598987 
L 251.620685 166.953833 
L 253.821822 166.542217 
L 255.404109 166.157938 
L 260.305682 165.441514 
L 260.44633 165.372852 
L 261.631287 165.223076 
L 262.060263 165.197807 
L 262.77405 165.154296 
L 269.855664 163.465691 
L 270.537805 163.358451 
L 271.926702 163.036691 
L 273.153853 162.843158 
L 274.085644 162.676352 
L 276.705209 162.153115 
L 277.647548 161.81088 
L 282.077952 160.622073 
L 283.298071 160.162654 
L 284.127893 159.976416 
L 284.887391 159.762517 
L 286.318481 159.232252 
L 289.166598 158.1705 
L 289.964774 157.805082 
L 292.060425 156.903217 
L 292.47182 156.786576 
L 292.679275 156.690991 
L 292.932441 156.700599 
L 292.932441 156.700599 
" clip-path="url(#pb3d993e05d)" style="fill: none; stroke: #fda762; stroke-width: 3; stroke-linecap: square"/>
   </g>
   <g id="line2d_26">
    <path d="M 292.932441 156.700599 
" clip-path="url(#pb3d993e05d)" style="fill: none; stroke: #fda762; stroke-opacity: 0.8; stroke-width: 3; stroke-linecap: square"/>
    <defs>
     <path id="md651970b54" d="M -1.666667 5 
L 1.666667 5 
L 1.666667 1.666667 
L 5 1.666667 
L 5 -1.666667 
L 1.666667 -1.666667 
L 1.666667 -5 
L -1.666667 -5 
L -1.666667 -1.666667 
L -5 -1.666667 
L -5 1.666667 
L -1.666667 1.666667 
z
" style="stroke: #000000; stroke-opacity: 0.8; stroke-width: 0.5; stroke-linejoin: miter"/>
    </defs>
    <g clip-path="url(#pb3d993e05d)">
     <use xlink:href="#md651970b54" x="292.932441" y="156.700599" style="fill: #fda762; fill-opacity: 0.8; stroke: #000000; stroke-opacity: 0.8; stroke-width: 0.5; stroke-linejoin: miter"/>
    </g>
   </g>
   <g id="patch_3">
    <path d="M 73.727141 286.920956 
L 73.727141 45.766022 
" style="fill: none; stroke: #000000; stroke-width: 0.8; stroke-linejoin: miter; stroke-linecap: square"/>
   </g>
   <g id="patch_4">
    <path d="M 73.727141 286.920956 
L 335.16 286.920956 
" style="fill: none; stroke: #000000; stroke-width: 0.8; stroke-linejoin: miter; stroke-linecap: square"/>
   </g>
   <g id="text_12">
    <!-- \hspace{1cm}20.2 -->
    <g style="fill: #7f2704" transform="translate(299.970368 74.364122) scale(0.22 -0.22)">
     <defs>
      <path id="CMR17-2e" d="M 1062 261 
C 1062 420 934 522 800 522 
C 672 522 538 420 538 261 
C 538 102 666 0 800 0 
C 928 0 1062 102 1062 261 
z
" transform="scale(0.015625)"/>
     </defs>
     <use xlink:href="#CMR17-32" transform="scale(0.996264)"/>
     <use xlink:href="#CMR17-30" transform="translate(45.690477 0) scale(0.996264)"/>
     <use xlink:href="#CMR17-2e" transform="translate(91.380954 0) scale(0.996264)"/>
     <use xlink:href="#CMR17-32" transform="translate(116.252013 0) scale(0.996264)"/>
    </g>
   </g>
   <g id="text_13">
    <!-- \hspace{1cm}15.8 -->
    <g style="fill: #c54102" transform="translate(299.970368 120.20426) scale(0.22 -0.22)">
     <defs>
      <path id="CMR17-38" d="M 1741 2264 
C 2144 2467 2554 2773 2554 3263 
C 2554 3841 1990 4179 1472 4179 
C 890 4179 378 3759 378 3180 
C 378 3021 416 2747 666 2505 
C 730 2442 998 2251 1171 2130 
C 883 1983 211 1634 211 934 
C 211 279 838 -128 1459 -128 
C 2144 -128 2720 362 2720 1010 
C 2720 1590 2330 1857 2074 2029 
L 1741 2264 
z
M 902 2822 
C 851 2854 595 3051 595 3351 
C 595 3739 998 4032 1459 4032 
C 1965 4032 2336 3676 2336 3262 
C 2336 2669 1670 2331 1638 2331 
C 1632 2331 1626 2331 1574 2370 
L 902 2822 
z
M 2080 1519 
C 2176 1449 2483 1240 2483 851 
C 2483 381 2010 25 1472 25 
C 890 25 448 438 448 940 
C 448 1443 838 1862 1280 2060 
L 2080 1519 
z
" transform="scale(0.015625)"/>
     </defs>
     <use xlink:href="#CMR17-31" transform="scale(0.996264)"/>
     <use xlink:href="#CMR17-35" transform="translate(45.690477 0) scale(0.996264)"/>
     <use xlink:href="#CMR17-2e" transform="translate(91.380954 0) scale(0.996264)"/>
     <use xlink:href="#CMR17-38" transform="translate(116.252013 0) scale(0.996264)"/>
    </g>
   </g>
   <g id="text_14">
    <!-- \hspace{1cm}12.8 -->
    <g style="fill: #f3701b" transform="translate(299.970368 147.002616) scale(0.22 -0.22)">
     <use xlink:href="#CMR17-31" transform="scale(0.996264)"/>
     <use xlink:href="#CMR17-32" transform="translate(45.690477 0) scale(0.996264)"/>
     <use xlink:href="#CMR17-2e" transform="translate(91.380954 0) scale(0.996264)"/>
     <use xlink:href="#CMR17-38" transform="translate(116.252013 0) scale(0.996264)"/>
    </g>
   </g>
   <g id="text_15">
    <!-- \hspace{1cm}11.7 -->
    <g style="fill: #fda762" transform="translate(299.970368 166.268734) scale(0.22 -0.22)">
     <defs>
      <path id="CMR17-37" d="M 2886 3941 
L 2886 4081 
L 1382 4081 
C 634 4081 621 4165 595 4288 
L 480 4288 
L 294 3094 
L 410 3094 
C 429 3215 474 3540 550 3661 
C 589 3712 1062 3712 1171 3712 
L 2579 3712 
L 1869 2661 
C 1395 1954 1069 999 1069 165 
C 1069 89 1069 -128 1299 -128 
C 1530 -128 1530 89 1530 171 
L 1530 465 
C 1530 1508 1709 2196 2003 2636 
L 2886 3941 
z
" transform="scale(0.015625)"/>
     </defs>
     <use xlink:href="#CMR17-31" transform="scale(0.996264)"/>
     <use xlink:href="#CMR17-31" transform="translate(45.690477 0) scale(0.996264)"/>
     <use xlink:href="#CMR17-2e" transform="translate(91.380954 0) scale(0.996264)"/>
     <use xlink:href="#CMR17-37" transform="translate(116.252013 0) scale(0.996264)"/>
    </g>
   </g>
   <g id="text_16">
    <!-- Continual Localization (CLOC) -->
    <g transform="translate(77.670556 39.766022) scale(0.2 -0.2)">
     <defs>
      <path id="CMR17-43" d="M 3974 4289 
C 3974 4403 3968 4410 3930 4410 
C 3904 4410 3898 4403 3853 4327 
L 3571 3792 
C 3258 4187 2874 4416 2381 4416 
C 1286 4416 294 3456 294 2148 
C 294 826 1286 -128 2387 -128 
C 3366 -128 3974 730 3974 1461 
C 3974 1524 3974 1550 3917 1550 
C 3866 1550 3866 1531 3859 1474 
C 3808 585 3168 38 2477 38 
C 1824 38 781 495 781 2147 
C 781 3805 1843 4250 2464 4250 
C 3187 4250 3712 3628 3834 2745 
C 3846 2668 3846 2655 3904 2655 
C 3974 2655 3974 2668 3974 2783 
L 3974 4289 
z
" transform="scale(0.015625)"/>
      <path id="CMR17-6f" d="M 2758 1356 
C 2758 2176 2163 2816 1466 2816 
C 768 2816 173 2176 173 1356 
C 173 551 768 -64 1466 -64 
C 2163 -64 2758 551 2758 1356 
z
M 1466 51 
C 1165 51 909 230 762 480 
C 602 767 582 1126 582 1408 
C 582 1677 595 2010 762 2298 
C 890 2509 1139 2714 1466 2714 
C 1754 2714 1997 2554 2150 2330 
C 2349 2029 2349 1607 2349 1408 
C 2349 1158 2336 775 2163 467 
C 1984 173 1709 51 1466 51 
z
" transform="scale(0.015625)"/>
      <path id="CMR17-4c" d="M 3469 1615 
L 3354 1615 
C 3302 983 3219 166 2125 166 
L 1530 166 
C 1274 166 1261 197 1261 414 
L 1261 3898 
C 1261 4129 1274 4192 1760 4192 
L 1901 4192 
L 1901 4352 
C 1638 4352 1331 4352 1069 4352 
C 870 4352 512 4352 326 4352 
L 326 4192 
C 768 4192 838 4192 838 3905 
L 838 452 
C 838 166 768 166 326 166 
L 326 0 
L 3315 0 
L 3469 1615 
z
" transform="scale(0.015625)"/>
      <path id="CMR17-7a" d="M 2310 2605 
C 2362 2670 2362 2682 2362 2695 
C 2362 2752 2336 2752 2221 2752 
L 275 2752 
L 211 1760 
L 326 1760 
C 371 2381 442 2650 1178 2650 
L 1958 2650 
L 128 96 
C 128 0 134 0 269 0 
L 2291 0 
L 2381 1152 
L 2266 1152 
C 2214 442 2131 115 1350 115 
L 531 115 
L 2310 2605 
z
" transform="scale(0.015625)"/>
      <path id="CMR17-28" d="M 1958 -1561 
C 1958 -1555 1958 -1542 1939 -1523 
C 1645 -1224 858 -407 858 1581 
C 858 3569 1632 4379 1946 4697 
C 1946 4704 1958 4717 1958 4736 
C 1958 4755 1939 4768 1914 4768 
C 1843 4768 1299 4296 986 3594 
C 666 2887 576 2199 576 1588 
C 576 1128 621 351 1005 -471 
C 1312 -1135 1837 -1600 1914 -1600 
C 1946 -1600 1958 -1587 1958 -1561 
z
" transform="scale(0.015625)"/>
      <path id="CMR17-29" d="M 1683 1581 
C 1683 2040 1638 2817 1254 3639 
C 947 4303 422 4768 346 4768 
C 326 4768 301 4761 301 4729 
C 301 4717 307 4710 314 4697 
C 621 4378 1402 3568 1402 1584 
C 1402 -407 627 -1217 314 -1537 
C 307 -1549 301 -1556 301 -1568 
C 301 -1600 326 -1600 346 -1600 
C 416 -1600 960 -1128 1274 -426 
C 1594 281 1683 969 1683 1581 
z
" transform="scale(0.015625)"/>
     </defs>
     <use xlink:href="#CMR17-43" transform="scale(0.996264)"/>
     <use xlink:href="#CMR17-6f" transform="translate(66.509881 0) scale(0.996264)"/>
     <use xlink:href="#CMR17-6e" transform="translate(112.200358 0) scale(0.996264)"/>
     <use xlink:href="#CMR17-74" transform="translate(160.493274 0) scale(0.996264)"/>
     <use xlink:href="#CMR17-69" transform="translate(195.774041 0) scale(0.996264)"/>
     <use xlink:href="#CMR17-6e" transform="translate(220.6451 0) scale(0.996264)"/>
     <use xlink:href="#CMR17-75" transform="translate(268.938016 0) scale(0.996264)"/>
     <use xlink:href="#CMR17-61" transform="translate(319.833385 0) scale(0.996264)"/>
     <use xlink:href="#CMR17-6c" transform="translate(365.523863 0) scale(0.996264)"/>
     <use xlink:href="#CMR17-4c" transform="translate(420.470887 0) scale(0.996264)"/>
     <use xlink:href="#CMR17-6f" transform="translate(477.852295 0) scale(0.996264)"/>
     <use xlink:href="#CMR17-63" transform="translate(526.145211 0) scale(0.996264)"/>
     <use xlink:href="#CMR17-61" transform="translate(566.630872 0) scale(0.996264)"/>
     <use xlink:href="#CMR17-6c" transform="translate(612.321349 0) scale(0.996264)"/>
     <use xlink:href="#CMR17-69" transform="translate(637.192407 0) scale(0.996264)"/>
     <use xlink:href="#CMR17-7a" transform="translate(662.063466 0) scale(0.996264)"/>
     <use xlink:href="#CMR17-61" transform="translate(702.549126 0) scale(0.996264)"/>
     <use xlink:href="#CMR17-74" transform="translate(748.239603 0) scale(0.996264)"/>
     <use xlink:href="#CMR17-69" transform="translate(783.520371 0) scale(0.996264)"/>
     <use xlink:href="#CMR17-6f" transform="translate(808.391429 0) scale(0.996264)"/>
     <use xlink:href="#CMR17-6e" transform="translate(854.081907 0) scale(0.996264)"/>
     <use xlink:href="#CMR17-28" transform="translate(935.053243 0) scale(0.996264)"/>
     <use xlink:href="#CMR17-43" transform="translate(970.334011 0) scale(0.996264)"/>
     <use xlink:href="#CMR17-4c" transform="translate(1036.843891 0) scale(0.996264)"/>
     <use xlink:href="#CMR17-4f" transform="translate(1094.225299 0) scale(0.996264)"/>
     <use xlink:href="#CMR17-43" transform="translate(1165.940087 0) scale(0.996264)"/>
     <use xlink:href="#CMR17-29" transform="translate(1232.449968 0) scale(0.996264)"/>
    </g>
   </g>
   <g id="legend_1">
    <g id="patch_5">
     <path d="M 218.254454 277.920956 
L 322.56 277.920956 
Q 326.16 277.920956 326.16 274.320956 
L 326.16 175.7687 
Q 326.16 172.1687 322.56 172.1687 
L 218.254454 172.1687 
Q 214.654454 172.1687 214.654454 175.7687 
L 214.654454 274.320956 
Q 214.654454 277.920956 218.254454 277.920956 
z
" style="fill: #ffffff; opacity: 0.5; stroke: #cccccc; stroke-linejoin: miter"/>
    </g>
    <g id="line2d_27">
     <path d="M 221.854454 185.6687 
L 239.854454 185.6687 
L 257.854454 185.6687 
" style="fill: none; stroke: #7f2704; stroke-opacity: 0.8; stroke-width: 3; stroke-linecap: square"/>
     <g>
      <use xlink:href="#md52bd713e3" x="239.854454" y="185.6687" style="fill: #7f2704; fill-opacity: 0.8; stroke: #000000; stroke-opacity: 0.8; stroke-width: 0.5; stroke-linejoin: bevel"/>
     </g>
    </g>
    <g id="text_17">
     <!-- $d$=0 -->
     <g transform="translate(272.254454 191.9687) scale(0.18 -0.18)">
      <defs>
       <path id="CMMI12-64" d="M 3219 4257 
C 3226 4282 3238 4320 3238 4352 
C 3238 4416 3174 4416 3162 4416 
C 3155 4416 2842 4388 2810 4380 
C 2701 4373 2605 4358 2490 4358 
C 2330 4345 2285 4339 2285 4224 
C 2285 4160 2336 4160 2426 4160 
C 2739 4160 2746 4103 2746 4040 
C 2746 4002 2733 3952 2726 3933 
L 2336 2395 
C 2266 2561 2093 2816 1760 2816 
C 1037 2816 256 1884 256 939 
C 256 307 627 -64 1062 -64 
C 1414 -64 1715 211 1894 422 
C 1958 45 2259 -64 2451 -64 
C 2643 -64 2797 51 2912 281 
C 3014 498 3104 888 3104 913 
C 3104 945 3078 971 3040 971 
C 2982 971 2976 939 2950 843 
C 2854 466 2733 64 2470 64 
C 2285 64 2272 229 2272 357 
C 2272 382 2272 515 2317 694 
L 3219 4257 
z
M 1926 760 
C 1894 651 1894 639 1805 517 
C 1664 338 1382 64 1082 64 
C 819 64 672 300 672 677 
C 672 1028 870 1743 992 2012 
C 1210 2459 1510 2689 1760 2689 
C 2182 2689 2266 2165 2266 2114 
C 2266 2108 2246 2024 2240 2012 
L 1926 760 
z
" transform="scale(0.015625)"/>
       <path id="CMR17-3d" d="M 4115 2017 
C 4211 2017 4307 2017 4307 2125 
C 4307 2240 4198 2240 4090 2240 
L 512 2240 
C 403 2240 294 2240 294 2125 
C 294 2017 390 2017 486 2017 
L 4115 2017 
z
M 4090 896 
C 4198 896 4307 896 4307 1011 
C 4307 1119 4211 1119 4115 1119 
L 486 1119 
C 390 1119 294 1119 294 1011 
C 294 896 403 896 512 896 
L 4090 896 
z
" transform="scale(0.015625)"/>
      </defs>
      <use xlink:href="#CMMI12-64" transform="scale(0.996264)"/>
      <use xlink:href="#CMR17-3d" transform="translate(50.689097 0) scale(0.996264)"/>
      <use xlink:href="#CMR17-30" transform="translate(122.403885 0) scale(0.996264)"/>
     </g>
    </g>
    <g id="line2d_28">
     <path d="M 221.854454 210.756764 
L 239.854454 210.756764 
L 257.854454 210.756764 
" style="fill: none; stroke: #c54102; stroke-opacity: 0.8; stroke-width: 3; stroke-linecap: square"/>
     <g>
      <use xlink:href="#m7f7200afba" x="239.854454" y="210.756764" style="fill: #c54102; fill-opacity: 0.8; stroke: #000000; stroke-opacity: 0.8; stroke-width: 0.5; stroke-linejoin: miter"/>
     </g>
    </g>
    <g id="text_18">
     <!-- $d$=10 -->
     <g transform="translate(272.254454 217.056764) scale(0.18 -0.18)">
      <use xlink:href="#CMMI12-64" transform="scale(0.996264)"/>
      <use xlink:href="#CMR17-3d" transform="translate(50.689097 0) scale(0.996264)"/>
      <use xlink:href="#CMR17-31" transform="translate(122.403885 0) scale(0.996264)"/>
      <use xlink:href="#CMR17-30" transform="translate(168.094362 0) scale(0.996264)"/>
     </g>
    </g>
    <g id="line2d_29">
     <path d="M 221.854454 235.844828 
L 239.854454 235.844828 
L 257.854454 235.844828 
" style="fill: none; stroke: #f3701b; stroke-opacity: 0.8; stroke-width: 3; stroke-linecap: square"/>
     <g>
      <use xlink:href="#md017ff6959" x="239.854454" y="235.844828" style="fill: #f3701b; fill-opacity: 0.8; stroke: #000000; stroke-opacity: 0.8; stroke-width: 0.5; stroke-linejoin: miter"/>
     </g>
    </g>
    <g id="text_19">
     <!-- $d$=50 -->
     <g transform="translate(272.254454 242.144828) scale(0.18 -0.18)">
      <use xlink:href="#CMMI12-64" transform="scale(0.996264)"/>
      <use xlink:href="#CMR17-3d" transform="translate(50.689097 0) scale(0.996264)"/>
      <use xlink:href="#CMR17-35" transform="translate(122.403885 0) scale(0.996264)"/>
      <use xlink:href="#CMR17-30" transform="translate(168.094362 0) scale(0.996264)"/>
     </g>
    </g>
    <g id="line2d_30">
     <path d="M 221.854454 260.932892 
L 239.854454 260.932892 
L 257.854454 260.932892 
" style="fill: none; stroke: #fda762; stroke-opacity: 0.8; stroke-width: 3; stroke-linecap: square"/>
     <g>
      <use xlink:href="#md651970b54" x="239.854454" y="260.932892" style="fill: #fda762; fill-opacity: 0.8; stroke: #000000; stroke-opacity: 0.8; stroke-width: 0.5; stroke-linejoin: miter"/>
     </g>
    </g>
    <g id="text_20">
     <!-- $d$=100 -->
     <g transform="translate(272.254454 267.232892) scale(0.18 -0.18)">
      <use xlink:href="#CMMI12-64" transform="scale(0.996264)"/>
      <use xlink:href="#CMR17-3d" transform="translate(50.689097 0) scale(0.996264)"/>
      <use xlink:href="#CMR17-31" transform="translate(122.403885 0) scale(0.996264)"/>
      <use xlink:href="#CMR17-30" transform="translate(168.094362 0) scale(0.996264)"/>
      <use xlink:href="#CMR17-30" transform="translate(213.784839 0) scale(0.996264)"/>
     </g>
    </g>
   </g>
  </g>
 </g>
 <defs>
  <clipPath id="pb3d993e05d">
   <rect x="73.727141" y="45.766022" width="261.432859" height="241.154934"/>
  </clipPath>
 </defs>
</svg>
